<?xml version="1.0" encoding="utf-8" ?>
<svg xmlns="http://www.w3.org/2000/svg" xmlns:xlink="http://www.w3.org/1999/xlink" width="512" height="512">
	<path fill="#01719B" d="M243.923 2.02902L260.249 1.99038C265.686 1.98824 271.285 1.76791 276.702 2.21277C394.989 11.9257 492.257 103.551 507.921 222.1L509.916 237.837C510.507 244.177 510.097 250.845 510.096 257.216L510.027 270.315C509.818 274.638 509.133 278.897 508.684 283.193C502.602 341.379 475.778 395.112 434.537 436.584C396.173 475.165 348.063 498.277 294.832 507.028C286.217 508.444 277.394 508.979 268.701 509.756C258.78 509.528 248.692 510.547 238.795 509.719C225.95 508.644 212.932 506.756 200.354 503.887L190.926 501.435C118.697 482.938 55.8304 430.376 25.375 362.192L17.1948 341.473C7.26321 315.003 3.18965 296.469 2.12798 267.672L2.47377 237.672C3.59202 213.879 8.70449 191.786 16.787 169.32C46.4468 86.8778 120.036 23.1442 206.179 6.41488L225.364 3.67141C231.556 2.94903 237.69 2.26346 243.923 2.02902Z"/>
	<path fill="white" d="M252.613 127.043L268.725 127.127C280.725 128.218 279.701 138.659 279.68 147.13L279.643 285.074C279.647 288.948 279.713 292.801 279.205 296.651C288.308 285.822 299.125 276.367 309.205 266.452L322.232 253.479C325.917 249.83 329.658 245.854 334.137 243.182C342.494 238.197 349.703 248.793 355.23 254.348C361.904 261.055 370.71 266.998 362.161 276.125L285.354 353.587C278.418 360.786 268.463 372.954 259.285 377.099L258.96 377.18C249.071 379.794 237.321 364.397 230.845 357.932L154.337 280.154C141.402 266.157 145.332 266.788 156.769 255.477C163.531 248.789 171.129 236.378 181.41 244.79C184.567 247.374 187.394 250.377 190.282 253.252L222.428 284.878C225.824 288.399 229.86 292.26 232.127 296.682L232.18 152.121C232.164 143.644 229.29 131.145 240.008 127.881L240.375 127.771C244.02 126.601 248.772 127.06 252.613 127.043Z"/>
</svg>
