<?xml version="1.0" encoding="utf-8" ?>
<svg xmlns="http://www.w3.org/2000/svg" xmlns:xlink="http://www.w3.org/1999/xlink" width="480" height="456">
	<path fill="#007BFF" transform="matrix(0.939062 0 0 -0.892187 0 456.8)" d="M0 237.327L0 0L238.08 0L280.664 0L512 0L512 238.334L512 273.171L512 512L272.424 512L236.832 512L0 512L0 274.917L0 237.327ZM0 274.917L0 512L236.832 512C233.314 511.131 229.478 511.196 225.875 510.745L205.398 507.37C98.1635 486.444 17.3628 398.459 1.76453 290.25C1.05273 285.312 1.10504 280.106 0.0737511 275.249L0 274.917ZM272.424 512L512 512L511.895 273.171L511.855 273.444C511.458 276.274 511.426 279.13 511.164 281.971L510.192 290.222C504.323 337.507 483.555 384.59 452.827 421.174C418.985 461.465 374.55 489.175 324.078 502.91L301.389 508.322L284.126 510.886C280.279 511.267 276.212 511.289 272.424 512ZM0 237.327C0.84488 233.648 0.876034 229.315 1.22164 225.533C2.60017 210.447 7.40285 191.639 11.8908 177.4C38.4196 93.2317 107.827 28.4122 193.25 7.2633C208.6 3.46286 223.215 2.83896 238.08 0L0 0L0 237.327ZM280.664 0C283.016 0.586572 285.388 0.757895 287.78 1.10761L298.709 2.89182C366.245 14.1554 428.559 53.0791 466.739 110.125L477.792 127.183C492.997 152.687 503.125 182.064 508.319 211.221L510.987 229.314C511.341 232.29 511.268 235.414 512 238.334L512 0L280.664 0Z"/>
	<path fill="#BCCACE" transform="matrix(0.939062 0 0 -0.892187 0 456.8)" d="M381.878 258.055C382.192 262.285 381.393 266.289 378.535 269.568L374.871 273.258L351.216 292.619L284.202 342.44C280.456 345.171 276.454 348.694 272.32 350.766C265.211 354.328 253.513 353.371 249.995 345.305C265.996 345.26 275.273 337.103 287.275 327.857L336.037 291.096L375.286 263.34C377.511 261.617 379.596 259.703 381.878 258.055Z"/>
	<path fill="white" transform="matrix(0.939062 0 0 -0.892187 0 456.8)" d="M138.678 217.099C142.642 216.042 146.78 216.31 150.83 216.305L244.486 216.287C245.306 216.278 247.767 216.478 248.354 216.08L248.505 176.234C248.515 172.421 248.187 169.516 251.114 166.758C262.222 156.293 277.487 171.42 286.244 178.292L312.226 198.544L365.531 237.762C369.868 241.087 374.71 244.575 378.329 248.682L379.315 249.798C380.109 251.175 380.865 252.455 381.289 254L381.413 254.439C381.745 255.654 381.827 256.804 381.878 258.055C379.596 259.703 377.511 261.617 375.286 263.34L336.037 291.096L287.275 327.857C275.273 337.103 265.996 345.26 249.995 345.308C247.16 340.877 248.502 334.329 248.5 329.313L248.491 302.449C248.489 299.284 248.871 295.55 248.366 292.464C248.169 291.259 246.718 291.698 245.723 291.641L150.273 291.546C139.41 291.536 130.893 292.921 128.65 280.03C128.847 277.73 128.52 274.979 128.517 272.633L128.519 242.868C128.527 230.709 125.707 223.32 138.678 217.099Z"/>
</svg>
