<svg version="1.1" xmlns="http://www.w3.org/2000/svg" xmlns:xlink="http://www.w3.org/1999/xlink" width="2361" height="2500" viewBox="0,0,241.7625,256"><defs><linearGradient x1="102.4" y1="45.37" x2="56.15" y2="91.61" gradientUnits="userSpaceOnUse" id="color-1"><stop offset="0.18" stop-color="#1e3557"></stop><stop offset="1" stop-color="#3378d3"></stop></linearGradient><linearGradient x1="8439.9455" y1="9724.1539" x2="11794.3927" y2="14896.1844" gradientUnits="userSpaceOnUse" id="color-2"><stop offset="0.18" stop-color="#1e3557"></stop><stop offset="1" stop-color="#3378d3"></stop></linearGradient></defs><g fill="none" fill-rule="nonzero" stroke="none" stroke-width="1" stroke-linecap="butt" stroke-linejoin="miter" stroke-miterlimit="10" stroke-dasharray="" stroke-dashoffset="0" font-family="none" font-weight="none" font-size="none" text-anchor="none" style="mix-blend-mode: normal"><g transform="translate(-1.46566,0) scale(1.12927,1.14286)"><path d="M214.06,105.73l-96.39,-96.39l-9.34,-9.34l-72.56,72.56l-33.18,33.17c-3.45024,3.46803 -3.45024,9.07197 0,12.54l66.29,66.29l39.45,39.44l72.55,-72.56l1.13,-1.12l32.05,-32c1.67754,-1.66528 2.62101,-3.93125 2.62101,-6.295c0,-2.36375 -0.94347,-4.62972 -2.62101,-6.295zM108.33,145.12l-33.12,-33.12l33.12,-33.12l33.11,33.12z" fill="#3378d3"></path><path d="M108.33,78.88c-21.68378,-21.67882 -21.791,-56.79918 -0.24,-78.61l-72.47,72.44l39.44,39.44z" fill="url(#color-1)"></path><path d="M141.53,111.91l-33.2,33.21c21.77241,21.77832 21.77241,57.08168 0,78.86l72.67,-72.63z" fill="url(#color-2)"></path></g></g></svg>