<?xml version="1.0" encoding="utf-8" ?>
<svg xmlns="http://www.w3.org/2000/svg" xmlns:xlink="http://www.w3.org/1999/xlink" width="512" height="512">
	<path fill="#C6C5D7" fill-opacity="0.94117647" transform="scale(0.666667 0.666667)" d="M450.454 66.3922C453.098 68.7935 456.564 72.3335 458.09 75.5625C458.519 75.6126 458.993 75.5169 459.375 75.7172C460.328 76.217 462.561 79.3645 463.266 80.2619C463.853 81.0098 464.609 81.8133 464.991 82.6725L464.815 83.2805L463.688 82.9095L463.176 83.2918L461.959 84.1044L455.114 73.2471C453.538 70.9785 451.66 68.8811 450.454 66.3922Z"/>
	<path fill="#8890B3" transform="scale(0.666667 0.666667)" d="M503.985 78.6991C504.94 78.0999 504.889 78.0488 505.999 78.3172C508.166 78.8413 510.012 80.0741 511.973 81.0864L522.295 86.4535L554.804 103.812L610.125 134.217C615.584 137.316 622.212 139.865 626.997 143.897L627.118 171.624C622.012 169.092 617.486 165.127 612.893 161.784C609.177 159.079 605.347 156.678 601.833 153.699L619.622 153.635C621.544 151.262 622.861 147.558 624.166 144.778C620.832 142.549 616.959 140.788 613.427 138.878L595.48 129.084L534.018 95.6158L514.941 85.2227C511.238 83.1875 507.285 81.3727 503.985 78.6991Z"/>
	<defs>
		<linearGradient id="gradient_0" gradientUnits="userSpaceOnUse" x1="4.6577039" y1="284.02783" x2="153.15912" y2="230.65192">
			<stop offset="0" stop-color="#26C7FF"/>
			<stop offset="1" stop-color="#7BE7FD"/>
		</linearGradient>
	</defs>
	<path fill="url(#gradient_0)" transform="scale(0.666667 0.666667)" d="M21.9394 334.041C21.1055 330.353 21.2676 326.259 21.2258 322.489L21.2415 303.196L22.1849 243.761C22.6526 232.238 23.1136 220.501 24.8751 209.093C30.1942 207.558 35.8524 207.305 41.2859 206.292L67.617 200.049C83.7915 195.634 100.093 190.248 115.688 184.104L139.192 174.147L138.822 174.67C137.738 176.068 134.924 176.192 134.283 177.634C134.03 178.201 133.834 178.373 133.353 178.731C133.813 179.526 134.027 179.5 133.82 180.422C133.453 182.05 134.672 182.987 135.208 184.447C135.447 185.099 135.865 185.431 136.224 186.001L136.612 186.866L137.349 187.877L137.438 189L138.094 188.719L138.58 188.596C139.373 188.379 140.024 188.029 140.699 187.569L140.626 188.337C134.238 191.35 127.49 193.653 120.936 196.279C117.489 197.66 112.642 200.319 109.023 200.843L37.9568 218.744L38.3209 287.124L38.6567 287.178L39.0834 287.615C38.2323 289.524 38.9344 293.517 38.9577 295.691L38.8043 315.375C38.7856 318.925 39.6571 325.524 38.2626 328.536C38.1309 332.216 38.4711 336.52 37.7786 340.082C37.0365 340.562 36.967 340.539 36.0622 340.312L34.875 339.941C34.2079 340.14 34.0699 340.048 33.6564 340.635C33.273 341.18 33.4568 340.988 32.9796 341.345C29.0042 339.003 25.5772 336.937 21.9394 334.041Z"/>
	<path fill="#4CC9EF" transform="scale(0.666667 0.666667)" d="M38.3209 287.124L38.6567 287.178L39.0834 287.615C38.2323 289.524 38.9344 293.517 38.9577 295.691L38.8043 315.375C38.7856 318.925 39.6571 325.524 38.2626 328.536C37.438 325.275 37.9471 320.744 37.9217 317.346C37.8469 307.336 37.3723 297.088 38.3209 287.124Z"/>
	<path fill="#4CC9EF" transform="scale(0.666667 0.666667)" d="M384.707 18.3526C388.508 19.115 392.305 20.9126 395.856 22.4463C418.087 32.05 434.252 48.863 450.444 66.3077L450.454 66.3922C451.66 68.8811 453.538 70.9785 455.114 73.2471L461.959 84.1044L463.176 83.2918L463.688 82.9095L464.815 83.2805L464.991 82.6725C467.079 84.847 468.633 87.825 470.25 90.375C470.756 91.1739 471.901 92.5445 472.167 93.4242C471.835 93.9102 471.649 93.9506 471.725 94.5544C472.013 96.8569 471.11 97.5947 470.415 99.6359L470.284 99.9705L473.042 105.114L458.72 100.115C435.047 92.9067 409.831 87.4404 385.067 86.643L385.038 37.8601L385.022 24.9249C385.016 22.9139 385.318 20.2444 384.707 18.3526ZM464.991 82.6725L464.815 83.2805L463.688 82.9095L463.176 83.2918L461.959 84.1044L467.02 93.7265L470.284 99.9705L470.415 99.6359C471.11 97.5947 472.013 96.8569 471.725 94.5544C471.649 93.9506 471.835 93.9102 472.167 93.4242C471.901 92.5445 470.756 91.1739 470.25 90.375C468.633 87.825 467.079 84.847 464.991 82.6725Z"/>
	<path fill="#CECBD7" fill-opacity="0.88627452" transform="scale(0.666667 0.666667)" d="M464.991 82.6725C467.079 84.847 468.633 87.825 470.25 90.375C470.756 91.1739 471.901 92.5445 472.167 93.4242C471.835 93.9102 471.649 93.9506 471.725 94.5544C472.013 96.8569 471.11 97.5947 470.415 99.6359L470.284 99.9705L467.02 93.7265L461.959 84.1044L463.176 83.2918L463.688 82.9095L464.815 83.2805L464.991 82.6725ZM461.959 84.1044L467.02 93.7265L467.305 93.1265L468.184 91.3125C468.44 90.1483 467.933 88.6024 467.179 87.7075C465.87 86.1516 465.53 85.1436 464.815 83.2805L463.688 82.9095L463.176 83.2918L461.959 84.1044Z"/>
	<path fill="#CECBD7" fill-opacity="0.84705883" transform="scale(0.666667 0.666667)" d="M461.959 84.1044L463.176 83.2918L463.688 82.9095L464.815 83.2805C465.53 85.1436 465.87 86.1516 467.179 87.7075C467.933 88.6024 468.44 90.1483 468.184 91.3125L467.305 93.1265L467.02 93.7265L461.959 84.1044Z"/>
	<path fill="#2F93E5" transform="scale(0.666667 0.666667)" d="M590.82 150.433C591.372 149.552 591.322 149.307 592.316 149.062L601.833 153.699C605.347 156.678 609.177 159.079 612.893 161.784C617.486 165.127 622.012 169.092 627.118 171.624L626.86 172.155C649.211 181.951 672.327 191.012 695.814 197.622L721.688 204.417C726.742 205.608 732.397 206.377 737.252 208.138C738.665 208.65 739.312 209.566 739.838 210.924C741.025 213.991 740.811 218.142 741.051 221.438L742.648 273.495L743.981 321.235C743.989 324.656 744.648 331.031 743.344 334.188C743.245 334.429 743.041 334.705 742.904 334.91C737.696 337.662 733.004 340.326 727.395 342.262C728.749 335.691 727.972 327.564 727.983 320.83L727.819 288.06L727.909 265.771L727.992 218.105C719.759 217.077 711.636 214.269 703.648 212.127L659.221 200.192C654.779 199.223 650.199 197.357 645.938 195.791C623.301 187.478 603.258 175.575 583.169 162.398L582.361 161.489C585.664 158.268 588.693 154.544 590.82 150.433Z"/>
	<path fill="#4CC9EF" transform="scale(0.666667 0.666667)" d="M590.82 150.433C591.372 149.552 591.322 149.307 592.316 149.062L601.833 153.699C605.347 156.678 609.177 159.079 612.893 161.784C617.486 165.127 622.012 169.092 627.118 171.624L626.86 172.155C624.957 172.05 622.475 170.773 620.75 169.925C614.567 166.888 608.969 162.92 603.237 159.147C599.016 156.368 594.465 153.98 590.82 150.433Z"/>
	<path fill="#99E8FB" transform="scale(0.666667 0.666667)" d="M284.675 105.056C286.508 101.821 289.229 98.8321 291.414 95.8125L306.981 74.9388C323.442 54.9801 342.609 37.1864 365.718 25.1947C371.73 22.0755 377.899 19.0023 384.707 18.3526C385.318 20.2444 385.016 22.9139 385.022 24.9249L385.038 37.8601L385.067 86.643L384.837 86.6845C379.181 86.6729 373.469 87.5881 367.875 88.3829C348.038 91.2009 328.961 95.8964 309.75 101.55L291.57 107.07C288.526 107.968 285.549 109.117 282.383 109.52C282.249 108.352 282.76 107.991 282.556 106.808L283.13 106.781C283.804 106.364 284.201 105.683 284.675 105.056Z"/>
	<defs>
		<linearGradient id="gradient_1" gradientUnits="userSpaceOnUse" x1="205.24287" y1="497.56357" x2="31.769114" y2="507.42694">
			<stop offset="0" stop-color="#9C9CB9"/>
			<stop offset="1" stop-color="#C3C7E0"/>
		</linearGradient>
	</defs>
	<path fill="url(#gradient_1)" transform="scale(0.666667 0.666667)" d="M21.9394 334.041C25.5772 336.937 29.0042 339.003 32.9796 341.345L35.5441 342.534C36.7386 342.793 37.2126 342.667 37.9399 343.688C39.1823 373.733 42.6938 403.771 48.8181 433.21C54.7364 461.659 62.8719 488.87 75.3732 515.176C83.7785 532.862 93.6954 550.088 104.585 566.359L112.756 577.871C125.752 591.563 140.282 604.906 155.071 616.663L178.527 633.939L216.163 660.571C212.329 663.669 210.277 667.533 207.489 671.505L91.2515 577.712C86.7102 573.369 83.9694 567.677 80.8731 562.302L72.5315 547.83C54.0189 514.166 40.4982 477.02 32.7854 439.381C25.687 404.741 22.9437 369.325 21.9394 334.041Z"/>
	<path fill="#8890B3" transform="scale(0.666667 0.666667)" d="M35.5441 342.534C36.7386 342.793 37.2126 342.667 37.9399 343.688C39.1823 373.733 42.6938 403.771 48.8181 433.21C54.7364 461.659 62.8719 488.87 75.3732 515.176C83.7785 532.862 93.6954 550.088 104.585 566.359L112.756 577.871L102.942 571.01C97.1877 566.58 93.5966 560.238 90.0987 554.002L82.8137 541.016C57.342 494.627 44.3168 442.433 38.9089 390.058L36.583 362.057C36.2626 355.807 36.4862 349.159 35.6126 342.982L35.5441 342.534Z"/>
	<path fill="#8890B3" transform="scale(0.666667 0.666667)" d="M727.395 342.262C733.004 340.326 737.696 337.662 742.904 334.91C743.603 338.128 743.337 341.703 743.337 344.994L742.63 369.421C741.371 407.821 735.128 445.758 723.111 482.272L715.246 504.49C708.283 521.423 699.405 537.783 690.296 553.644C686.788 559.753 683.698 566.125 679.894 572.056C677.187 576.277 673.886 578.782 670.125 581.974L659.785 591.098L627.083 620.884C612.775 633.176 597.264 644.315 581.952 655.312L557.275 672.82C553.602 667.785 549.458 664.069 544.504 660.349C548.297 658.452 552.217 656.902 555.914 654.8C562.459 651.079 568.586 646.398 574.734 642.056L620.958 606.421L638.659 590.384C642.466 586.778 646.47 583.21 649.88 579.222C661.043 566.166 669.814 551.261 677.98 536.203L691.265 510.838C707.1 476.86 716.83 439.908 722.159 402.885C725.053 382.776 725.632 362.478 727.395 342.262Z"/>
	<path fill="#C6C5D7" transform="scale(0.666667 0.666667)" d="M216.163 660.571L227.014 654.774L237.671 649.032C238.383 648.647 240.187 647.384 240.919 647.279C242.631 647.033 256.931 654.838 259.532 656.147L378.772 710.023C379.552 710.352 382.522 712.253 383.114 712.232C383.784 712.21 385.738 711.115 386.436 710.812L396.375 706.517L480.684 670.186L502.861 660.608L515.158 654.63C518.258 653.059 522.822 649.879 526.293 649.472C527.93 649.281 541.733 658.712 544.504 660.349C549.458 664.069 553.602 667.785 557.275 672.82C536.554 686.826 512.832 697.279 489.991 707.339L449.905 724.946L416.413 738.172L398.359 745.256C393.897 746.994 388.865 749.477 384.023 749.683C377.923 749.943 371.414 746.934 365.765 744.909L348.853 738.793C317.857 727.26 286.344 715.491 256.694 700.795L239.771 691.717C228.645 685.76 216.895 680.029 207.489 671.505C210.277 667.533 212.329 663.669 216.163 660.571Z"/>
	<defs>
		<linearGradient id="gradient_2" gradientUnits="userSpaceOnUse" x1="583.45251" y1="635.7829" x2="198.9167" y2="159.79042">
			<stop offset="0" stop-color="#36A6FF"/>
			<stop offset="1" stop-color="#40D5FD"/>
		</linearGradient>
	</defs>
	<path fill="url(#gradient_2)" transform="scale(0.666667 0.666667)" d="M39.0834 287.615L110.547 288.003L110.996 353.625C111.573 382.648 112.122 411.829 118.418 440.311C118.929 444.788 120.249 448.442 121.613 452.671C127.622 471.309 136.512 489.658 146.928 506.249C150.821 513.303 155.29 519.882 159.755 526.577C166.736 537.045 173.914 547.241 181.965 556.921C189.263 565.697 197.365 573.772 205.466 581.797C217.541 593.761 229.97 605.871 243.859 615.736C249.22 619.545 254.957 622.834 260.674 626.07C265.393 628.74 270.1 631.499 275.344 633.007L279.085 634.041L284.147 635.353L347.551 665.585L347.562 665.599L368.644 673.678L378.865 677.414C380.119 677.833 381.764 678.581 383.068 678.724C384.739 678.908 386.679 678.334 388.315 677.969C392.744 676.98 397.029 675.538 401.326 674.099C419.993 667.846 439.02 661.091 456.508 651.995L472.622 643.072C478.533 639.553 484.094 635.924 490.615 633.579C499.215 630.642 506.736 626.545 514.278 621.534C524.025 615.059 533.075 607.351 542.137 599.966C563.72 582.375 584.495 562.929 601.575 540.857C616.046 522.158 628.382 500.786 637.822 479.122C642.305 468.836 647.256 457.346 649.501 446.348C653.328 436.62 655.991 424.514 656.238 414.036L655.781 408.998L659.204 358.788L659.488 339.199L659.379 310.452C659.381 305.077 658.693 298.454 659.848 293.232C660.296 291.205 661.388 289.928 662.764 288.458C665.475 287.874 668.296 288.008 671.052 288.003L684.039 287.99L727.819 288.06L727.983 320.83C727.972 327.564 728.749 335.691 727.395 342.262C725.632 362.478 725.053 382.776 722.159 402.885C716.83 439.908 707.1 476.86 691.265 510.838L677.98 536.203C669.814 551.261 661.043 566.166 649.88 579.222C646.47 583.21 642.466 586.778 638.659 590.384L620.958 606.421L574.734 642.056C568.586 646.398 562.459 651.079 555.914 654.8C552.217 656.902 548.297 658.452 544.504 660.349C541.733 658.712 527.93 649.281 526.293 649.472C522.822 649.879 518.258 653.059 515.158 654.63L502.861 660.608L480.684 670.186L396.375 706.517L386.436 710.812C385.738 711.115 383.784 712.21 383.114 712.232C382.522 712.253 379.552 710.352 378.772 710.023L259.532 656.147C256.931 654.838 242.631 647.033 240.919 647.279C240.187 647.384 238.383 648.647 237.671 649.032L227.014 654.774L216.163 660.571L178.527 633.939L155.071 616.663C140.282 604.906 125.752 591.563 112.756 577.871L104.585 566.359C93.6954 550.088 83.7785 532.862 75.3732 515.176C62.8719 488.87 54.7364 461.659 48.8181 433.21C42.6938 403.771 39.1823 373.733 37.9399 343.688C37.2126 342.667 36.7386 342.793 35.5441 342.534L32.9796 341.345C33.4568 340.988 33.273 341.18 33.6564 340.635C34.0699 340.048 34.2079 340.14 34.875 339.941L36.0622 340.312C36.967 340.539 37.0365 340.562 37.7786 340.082C38.4711 336.52 38.1309 332.216 38.2626 328.536C39.6571 325.524 38.7856 318.925 38.8043 315.375L38.9577 295.691C38.9344 293.517 38.2323 289.524 39.0834 287.615Z"/>
	<path fill="#4CC9EF" transform="scale(0.666667 0.666667)" d="M659.204 358.788L659.763 376.662C659.986 382.928 660.447 388.914 659.776 395.191C659.264 399.994 658.61 404.948 657.556 409.664C657.217 411.179 656.53 412.479 656.238 414.036L655.781 408.998L659.204 358.788Z"/>
	<defs>
		<linearGradient id="gradient_3" gradientUnits="userSpaceOnUse" x1="528.0722" y1="578.79108" x2="221.862" y2="125.69263">
			<stop offset="0" stop-color="#ADACC7"/>
			<stop offset="1" stop-color="#E1E9EE"/>
		</linearGradient>
	</defs>
	<path fill="url(#gradient_3)" transform="scale(0.666667 0.666667)" d="M503.985 78.6991C507.285 81.3727 511.238 83.1875 514.941 85.2227L534.018 95.6158L595.48 129.084L613.427 138.878C616.959 140.788 620.832 142.549 624.166 144.778C622.861 147.558 621.544 151.262 619.622 153.635L601.833 153.699L592.316 149.062C591.322 149.307 591.372 149.552 590.82 150.433C588.693 154.544 585.664 158.268 582.361 161.489L583.169 162.398C603.258 175.575 623.301 187.478 645.938 195.791C650.199 197.357 654.779 199.223 659.221 200.192L703.648 212.127C711.636 214.269 719.759 217.077 727.992 218.105L727.909 265.771L727.819 288.06L684.039 287.99L671.052 288.003C668.296 288.008 665.475 287.874 662.764 288.458C661.388 289.928 660.296 291.205 659.848 293.232C658.693 298.454 659.381 305.077 659.379 310.452L659.488 339.199L659.204 358.788L655.781 408.998L656.238 414.036C655.991 424.514 653.328 436.62 649.501 446.348C647.256 457.346 642.305 468.836 637.822 479.122C628.382 500.786 616.046 522.158 601.575 540.857C584.495 562.929 563.72 582.375 542.137 599.966C533.075 607.351 524.025 615.059 514.278 621.534C506.736 626.545 499.215 630.642 490.615 633.579C484.094 635.924 478.533 639.553 472.622 643.072L456.508 651.995C439.02 661.091 419.993 667.846 401.326 674.099C397.029 675.538 392.744 676.98 388.315 677.969C386.679 678.334 384.739 678.908 383.068 678.724C381.764 678.581 380.119 677.833 378.865 677.414L368.644 673.678L347.562 665.599L347.551 665.585L284.147 635.353L279.085 634.041L275.344 633.007C270.1 631.499 265.393 628.74 260.674 626.07C254.957 622.834 249.22 619.545 243.859 615.736C229.97 605.871 217.541 593.761 205.466 581.797C197.365 573.772 189.263 565.697 181.965 556.921C173.914 547.241 166.736 537.045 159.755 526.577C155.29 519.882 150.821 513.303 146.928 506.249C136.512 489.658 127.622 471.309 121.613 452.671C120.249 448.442 118.929 444.788 118.418 440.311C112.122 411.829 111.573 382.648 110.996 353.625L110.547 288.003L39.0834 287.615L38.6567 287.178L38.3209 287.124L37.9568 218.744L109.023 200.843C112.642 200.319 117.489 197.66 120.936 196.279C127.49 193.653 134.238 191.35 140.626 188.337L140.699 187.569C140.024 188.029 139.373 188.379 138.58 188.596L138.094 188.719L137.438 189L137.349 187.877L136.612 186.866L136.224 186.001C135.865 185.431 135.447 185.099 135.208 184.447C134.672 182.987 133.453 182.05 133.82 180.422C134.027 179.5 133.813 179.526 133.353 178.731C133.834 178.373 134.03 178.201 134.283 177.634C134.924 176.192 137.738 176.068 138.822 174.67L139.192 174.147L139.191 174.075L144.273 171.706L144.402 170.008L144.71 147C144.747 145.221 144.661 144.739 145.97 143.474C149.954 140.506 154.379 138.25 158.625 135.696L201.666 111.484L234.872 92.8519C241.97 88.8332 248.97 84.5725 256.323 81.0314C258.337 80.0612 260.258 79.5281 262.436 79.0898L263.438 80.3696C266.27 83.9364 268.336 87.996 270.698 91.8775L279.865 105.426L284.675 105.056C284.201 105.683 283.804 106.364 283.13 106.781L282.556 106.808C282.76 107.991 282.249 108.352 282.383 109.52C285.549 109.117 288.526 107.968 291.57 107.07L309.75 101.55C328.961 95.8964 348.038 91.2009 367.875 88.3829C373.469 87.5881 379.181 86.6729 384.837 86.6845L385.067 86.643C409.831 87.4404 435.047 92.9067 458.72 100.115L473.042 105.114L470.284 99.9705L470.415 99.6359C471.11 97.5947 472.013 96.8569 471.725 94.5544C471.649 93.9506 471.835 93.9102 472.167 93.4242C475.48 98.4474 478.385 104.168 482.805 108.312C484.49 109.892 486.537 111.027 488.513 112.199L498.57 88.8737C499.875 85.9594 501.282 81.2869 503.527 79.1091L503.985 78.6991ZM503.985 78.6991L503.527 79.1091C501.282 81.2869 499.875 85.9594 498.57 88.8737L488.513 112.199C486.537 111.027 484.49 109.892 482.805 108.312C478.385 104.168 475.48 98.4474 472.167 93.4242C471.835 93.9102 471.649 93.9506 471.725 94.5544C472.013 96.8569 471.11 97.5947 470.415 99.6359L470.284 99.9705L473.042 105.114L458.72 100.115C435.047 92.9067 409.831 87.4404 385.067 86.643L384.837 86.6845C379.181 86.6729 373.469 87.5881 367.875 88.3829C348.038 91.2009 328.961 95.8964 309.75 101.55L291.57 107.07C288.526 107.968 285.549 109.117 282.383 109.52C282.249 108.352 282.76 107.991 282.556 106.808L283.13 106.781C283.804 106.364 284.201 105.683 284.675 105.056L279.865 105.426L270.698 91.8775C268.336 87.996 266.27 83.9364 263.438 80.3696L262.436 79.0898C260.258 79.5281 258.337 80.0612 256.323 81.0314C248.97 84.5725 241.97 88.8332 234.872 92.8519L201.666 111.484L158.625 135.696C154.379 138.25 149.954 140.506 145.97 143.474C144.661 144.739 144.747 145.221 144.71 147L144.402 170.008L144.273 171.706C148.656 169.8 153.094 167.74 157.099 165.121L158.356 164.914C159.955 164.956 161.076 164.256 162.469 163.559C162.037 162.923 161.821 162.355 161.587 161.625C162.359 160.415 163.994 159.564 165.182 158.794C169.88 156.102 173.234 153.579 178.925 154.514C180.115 154.665 181.101 154.535 181.846 155.625L184.536 161.037L187.288 163.592L186.989 164.261C189.941 170.631 194.583 176.468 198.378 182.363L217.735 212.759L229.849 231.375L245.201 252.375C250.494 259.523 255.825 266.85 261.781 273.462C285.352 299.631 314.446 318.744 343.238 338.538L366.19 354.045C371.747 357.682 377.564 361.144 382.873 365.13L382.508 360.726C382.262 359.777 382.409 358.341 382.401 357.33C382.38 354.437 382.667 351.215 382.171 348.373C381.71 345.734 382.057 342.704 382.031 340.004L381.997 318.304C385.679 317.954 390.392 314.481 393.576 312.599L425.533 292.054C431.263 289.018 436.582 284.406 441.939 280.675C445.577 278.142 449.542 275.969 453.083 273.337C461.017 269.108 468.561 263.28 475.981 258.182C485.251 251.814 495.032 245.753 503.583 238.439L483.061 221.862L482.539 220.363C487.978 214.778 495.297 210.586 501.936 206.534L521.902 194.321C528.665 190.176 535.583 185.256 542.711 181.823C543.851 181.792 545.302 181.121 546.375 180.685C550.584 178.979 554.211 176.254 558.284 174.318C561.428 172.823 564.741 171.733 567.805 170.074C571.64 167.998 574.178 165.393 578.59 164.408C579.506 163.121 580.855 161.982 582.361 161.489C585.664 158.268 588.693 154.544 590.82 150.433C591.372 149.552 591.322 149.307 592.316 149.062L601.833 153.699L619.622 153.635C621.544 151.262 622.861 147.558 624.166 144.778C620.832 142.549 616.959 140.788 613.427 138.878L595.48 129.084L534.018 95.6158L514.941 85.2227C511.238 83.1875 507.285 81.3727 503.985 78.6991ZM578.59 164.408C574.178 165.393 571.64 167.998 567.805 170.074C564.741 171.733 561.428 172.823 558.284 174.318C554.211 176.254 550.584 178.979 546.375 180.685C545.302 181.121 543.851 181.792 542.711 181.823C535.583 185.256 528.665 190.176 521.902 194.321L501.936 206.534C495.297 210.586 487.978 214.778 482.539 220.363L483.061 221.862L503.583 238.439C495.032 245.753 485.251 251.814 475.981 258.182C468.561 263.28 461.017 269.108 453.083 273.337C449.542 275.969 445.577 278.142 441.939 280.675C436.582 284.406 431.263 289.018 425.533 292.054L393.576 312.599C390.392 314.481 385.679 317.954 381.997 318.304L382.031 340.004C382.057 342.704 381.71 345.734 382.171 348.373C382.667 351.215 382.38 354.437 382.401 357.33C382.409 358.341 382.262 359.777 382.508 360.726C383.177 362.043 383.545 363.407 384.115 364.759C382.79 367.026 383.307 370.41 383.307 373.027L383.352 386.782C383.365 389.546 383.597 392.493 383.152 395.224L297.693 345.529L274.999 332.348C271.85 330.518 268.066 327.616 264.601 326.607C264.062 328.363 263.448 330.164 263.283 332C262.315 342.747 264.686 354.082 266.41 364.653C267.321 370.239 267.881 375.865 269.768 381.235L284.812 389.754L284.93 389.36C282.893 387.473 282.432 384.431 282.233 381.676L283.235 381.939C283.268 383.534 283.106 384.364 283.698 385.893C284.098 386.924 284.089 387.729 285.046 388.374C286.079 389.072 286.94 389.887 288 390.562L289.775 391.752C290.446 392.179 290.739 392.536 291.469 392.906L292.894 393.86C293.342 394.178 293.757 394.368 294.248 394.604C295.437 395.176 296.092 396.041 297.363 396.578C297.95 396.826 297.642 396.687 298.253 397.185L302.625 400.125L303.281 399.844L294.642 394.045C293.176 393.028 291.553 392.226 290.268 390.979C289.437 390.173 288.472 389.739 287.438 389.25L287.438 388.698C289.246 389.568 290.304 390.546 291.885 391.592C293.387 392.585 294.938 393.3 296.3 394.502C298.299 396.268 301.132 397.669 303.375 399.105C306.063 400.825 308.515 402.984 311.217 404.68C313.737 406.261 316.739 407.627 318.802 409.809C319.884 410.953 321.01 410.72 322.242 411.518C326.364 414.186 330.292 417.656 334.785 419.655L337.406 422.385C337.897 422.905 338.195 423.047 338.794 423.366C339.946 423.98 340.634 424.868 341.442 425.866L341.505 426.543L342.984 428.096L355.202 469.325C355.548 470.654 355.594 471.355 355.262 472.69C355.717 475.558 356.662 478.312 357.368 481.125L361.106 496.364C365.96 516.016 369.713 535.907 378.34 554.354C379.994 556.632 382.1 558.682 383.606 561.03L383.589 561.524L384.038 561.542C386.579 561.098 388.662 556.855 389.83 554.86C390.858 555.765 391.937 556.643 392.825 557.689C396.743 555.669 400.261 552.648 403.875 550.113C411.733 544.601 419.735 539.275 427.065 533.053L444.664 516.939L444.968 516.685C442.554 530.143 441.578 544.02 435.821 556.63L436.778 556.975L437.15 556.868L437.646 556.767C439.496 556.254 441.418 554.91 443.103 553.99L455.126 547.155C468.572 539.294 481.613 530.89 493.777 521.138C499.976 516.168 506.122 510.935 511.256 504.841C515.853 499.387 519.757 493.121 522.972 486.764C527.974 476.872 531.626 466.678 535.419 456.291C540.517 442.331 545.771 428.221 549.159 413.731C551.721 402.771 553.048 391.411 554.062 380.214C554.754 372.58 555.417 363.882 554.451 356.259C553.993 352.645 552.645 349.145 551.707 345.637L544.785 321.674L539.725 307.257L531.111 312.375C529.194 313.602 526.9 315.468 524.625 315.859L524.18 315.375C524.153 315.095 523.936 313.869 524.02 313.688C524.213 313.271 525.198 312.445 525.548 312.066C527.766 309.665 529.43 307.068 531.088 304.261L546.054 276.193C554.893 258.697 561.697 239.528 567.712 220.899L573.782 201.097L574.995 194.004L580.977 167.15C581.313 165.616 581.809 163.27 583.169 162.398L582.361 161.489C580.855 161.982 579.506 163.121 578.59 164.408ZM165.182 158.794C163.994 159.564 162.359 160.415 161.587 161.625C161.821 162.355 162.037 162.923 162.469 163.559C161.076 164.256 159.955 164.956 158.356 164.914L157.099 165.121C153.094 167.74 148.656 169.8 144.273 171.706L139.191 174.075L139.192 174.147L138.822 174.67C137.738 176.068 134.924 176.192 134.283 177.634C134.03 178.201 133.834 178.373 133.353 178.731C133.813 179.526 134.027 179.5 133.82 180.422C133.453 182.05 134.672 182.987 135.208 184.447C135.447 185.099 135.865 185.431 136.224 186.001L136.612 186.866L137.349 187.877L137.438 189L138.094 188.719L138.58 188.596C139.373 188.379 140.024 188.029 140.699 187.569L140.626 188.337C144.094 187.132 147.41 185.183 150.609 183.4L169.568 171.731C174.796 168.334 180.156 165.553 184.536 161.037L181.846 155.625C181.101 154.535 180.115 154.665 178.925 154.514C173.234 153.579 169.88 156.102 165.182 158.794Z"/>
	<path fill="#979DC5" transform="scale(0.666667 0.666667)" d="M453.765 628.952C458.254 625.691 463.733 623.406 468.399 620.286C474.494 616.209 479.963 610.755 486.316 607.146C484.604 609.876 479.321 611.718 478.884 614.604L478.508 615.407L453.672 630.312L453.765 628.952Z"/>
	<path fill="#E1F1F5" transform="scale(0.666667 0.666667)" d="M118.418 440.311C120.533 443.251 120.696 446.35 121.991 449.572L130.532 470.29C132.369 474.851 133.952 479.697 136.136 484.092L144.642 500.185C145.533 502.004 147.026 504.182 146.928 506.249C136.512 489.658 127.622 471.309 121.613 452.671C120.249 448.442 118.929 444.788 118.418 440.311Z"/>
	<path fill="#979DC5" transform="scale(0.666667 0.666667)" d="M201.223 535.639L201.844 535.406L203.025 536.487L203.883 536.203C211.936 545.585 219.509 555.024 228.25 563.803L237.577 573.046C238.098 573.559 239.893 575.025 240.068 575.582L239.471 576.567C242.135 579.267 244.726 582.138 247.688 584.441C248.752 585.269 249.327 586.154 250.498 586.877C252.001 587.804 253.19 589.77 254.814 590.629C255.538 591.012 256.056 591.833 256.565 592.466C253.989 591.445 252.506 589.524 250.391 587.887C249.338 587.072 248.221 585.683 247.146 585.017C243.789 582.937 241.616 578.766 238.316 576.699C237.446 576.154 236.868 575.308 236.066 574.688C234.466 573.449 233.1 572.02 231.75 570.484L201.223 535.639Z"/>
	<path fill="#A1A8CC" transform="scale(0.666667 0.666667)" d="M256.565 592.466C256.056 591.833 255.538 591.012 254.814 590.629C253.19 589.77 252.001 587.804 250.498 586.877C249.327 586.154 248.752 585.269 247.688 584.441C244.726 582.138 242.135 579.267 239.471 576.567L240.068 575.582L294.759 616.99L293.83 617.612C292.125 617.069 290.772 615.958 288.938 615.503C287.881 615.936 287.798 616.536 287.27 617.522C286.439 616.338 286.115 614.606 285.315 613.688L284.311 614.085L280.17 610.078L279.562 609.923C276.612 606.974 272.961 604.801 269.605 602.339L256.565 592.466Z"/>
	<path fill="#A1A8CC" transform="scale(0.666667 0.666667)" d="M201.223 535.639L200.932 535.566C196.529 531.261 192.892 525.556 189.4 520.486C180.188 507.11 172.299 493.122 165.533 478.345L154.869 452.08C151.567 443.632 147.894 434.934 145.416 426.206C145.056 424.939 144.615 424.286 145.285 423.081L147.301 425.436L153.081 440.113C160.206 459.694 167.13 478.989 177.417 497.216C185.198 511.002 194.379 523.581 203.883 536.203L203.025 536.487L201.844 535.406L201.223 535.639Z"/>
	<path fill="#8890B3" transform="scale(0.666667 0.666667)" d="M293.83 617.612L294.759 616.99C302.11 622.056 309.665 626.056 317.625 630.074C332.278 637.469 347.27 643.802 362.714 649.356C367.774 651.175 372.806 653.32 378 654.724C380.508 655.402 382.87 655.384 385.366 655.811C385.954 655.912 386.319 655.794 386.883 655.664C388.287 655.342 389.744 655.308 391.146 654.956C398.719 653.058 406.193 650.299 413.471 647.498C427.36 642.153 440.633 635.943 453.765 628.952L453.672 630.312C440.97 637.148 427.817 643.19 414.375 648.417C405.86 651.728 397.005 654.949 388.125 657.109L386.794 657.443C385.041 657.826 383.328 657.635 381.562 657.437C375.054 656.709 368.625 654.036 362.498 651.806C345.28 645.537 328.04 638.286 311.975 629.418C305.655 625.929 299.881 621.55 293.83 617.612Z"/>
	<path fill="white" transform="scale(0.666667 0.666667)" d="M627.77 413.045C627.529 414.665 626.973 416.168 626.453 417.714C625.72 419.463 624.968 421.176 624.08 422.853C623.834 423.317 622.914 424.65 622.901 425.119L585.76 425.144C584.549 425.033 583.501 424.926 582.679 423.938L582.938 422.156C583.429 419.155 583.349 416.324 583.265 413.297L627.77 413.045Z"/>
	<path fill="white" transform="scale(0.666667 0.666667)" d="M145.285 423.081C142.851 420.047 141.243 418.208 141.512 414.109C143.192 413.473 145.733 413.694 147.538 413.653L163.117 413.543L186.777 413.267L187.902 424.966L160.389 425.123C156.308 425.124 151.278 424.621 147.301 425.436L145.285 423.081Z"/>
	<path fill="#99E8FB" transform="scale(0.666667 0.666667)" d="M165.182 158.794C169.88 156.102 173.234 153.579 178.925 154.514C180.115 154.665 181.101 154.535 181.846 155.625L184.536 161.037C180.156 165.553 174.796 168.334 169.568 171.731L150.609 183.4C147.41 185.183 144.094 187.132 140.626 188.337L140.699 187.569C140.024 188.029 139.373 188.379 138.58 188.596L138.094 188.719L137.438 189L137.349 187.877L136.612 186.866L136.224 186.001C135.865 185.431 135.447 185.099 135.208 184.447C134.672 182.987 133.453 182.05 133.82 180.422C134.027 179.5 133.813 179.526 133.353 178.731C133.834 178.373 134.03 178.201 134.283 177.634C134.924 176.192 137.738 176.068 138.822 174.67L139.192 174.147L139.191 174.075L144.273 171.706C148.656 169.8 153.094 167.74 157.099 165.121L158.356 164.914C159.955 164.956 161.076 164.256 162.469 163.559C162.037 162.923 161.821 162.355 161.587 161.625C162.359 160.415 163.994 159.564 165.182 158.794ZM165.182 158.794C166.443 159.484 167.428 159.759 168.854 159.92C172.249 158.307 175.822 156.646 178.925 154.514C173.234 153.579 169.88 156.102 165.182 158.794ZM162.469 163.559C163.14 163.679 168.008 160.452 168.854 159.92C167.428 159.759 166.443 159.484 165.182 158.794C163.994 159.564 162.359 160.415 161.587 161.625C161.821 162.355 162.037 162.923 162.469 163.559Z"/>
	<defs>
		<linearGradient id="gradient_4" gradientUnits="userSpaceOnUse" x1="165.63684" y1="160.29112" x2="162.61557" y2="161.15465">
			<stop offset="0" stop-color="white" stop-opacity="0.90980393"/>
			<stop offset="1" stop-color="white" stop-opacity="0.94117647"/>
		</linearGradient>
	</defs>
	<path fill="url(#gradient_4)" transform="scale(0.666667 0.666667)" d="M162.469 163.559C162.037 162.923 161.821 162.355 161.587 161.625C162.359 160.415 163.994 159.564 165.182 158.794C166.443 159.484 167.428 159.759 168.854 159.92C168.008 160.452 163.14 163.679 162.469 163.559Z"/>
	<defs>
		<linearGradient id="gradient_5" gradientUnits="userSpaceOnUse" x1="168.30792" y1="155.15295" x2="174.44208" y2="158.34705">
			<stop offset="0" stop-color="white" stop-opacity="0.93725491"/>
			<stop offset="1" stop-color="white" stop-opacity="0.98823529"/>
		</linearGradient>
	</defs>
	<path fill="url(#gradient_5)" transform="scale(0.666667 0.666667)" d="M165.182 158.794C169.88 156.102 173.234 153.579 178.925 154.514C175.822 156.646 172.249 158.307 168.854 159.92C167.428 159.759 166.443 159.484 165.182 158.794Z"/>
	<path fill="#8890B3" transform="scale(0.666667 0.666667)" d="M279.085 634.041C278.33 630.622 277.876 627.585 278.413 624.074L279.836 615.167C266.903 609.438 256.054 599.905 245.096 591.195C242.5 589.132 240.14 586.664 237.725 584.382L222.683 569.368C210.292 556.237 198.246 542.503 187.722 527.812C178.693 515.209 170.871 501.616 163.865 487.804C159.983 480.151 156.937 472.206 153.765 464.249C153.123 462.64 151.313 459.365 151.386 457.688C151.4 457.364 151.587 457.071 151.688 456.763C151.89 456.821 152.12 456.821 152.296 456.938C152.767 457.249 154.164 461.456 154.49 462.273L162.45 480.633C167.297 491.032 172.471 501.211 178.614 510.918L188.8 525.678C193.03 531.888 197.131 538.26 201.837 544.125C209.639 553.849 218.162 562.867 226.943 571.702C235.152 579.961 243.484 587.963 252.752 595.046C258.946 599.778 265.48 604.204 272.201 608.152C276.181 610.489 280.402 612.054 284.056 614.902L284.311 614.085L285.315 613.688C286.115 614.606 286.439 616.338 287.27 617.522C286.086 621.768 284.619 626.846 285.036 631.311C291.999 637.488 302.399 641.524 310.789 645.488L329.12 654.305L345.89 662.111C346.623 662.483 348.738 663.259 348.808 663.986L348.314 664.192L347.551 665.585L284.147 635.353L279.085 634.041Z"/>
	<path fill="#CECBD7" transform="scale(0.666667 0.666667)" d="M284.147 635.353C285.133 635.185 285.956 635.213 286.904 635.542C289.506 636.444 291.897 637.829 294.363 639.034L304.804 644.071L332.338 656.988C337.598 659.416 342.866 662.246 348.314 664.192L347.551 665.585L284.147 635.353Z"/>
	<path fill="#C6C5D7" transform="scale(0.666667 0.666667)" d="M478.508 615.407C479.328 615.2 479.89 614.813 480.646 615.375C482.779 616.96 489.307 630.746 490.615 633.579C484.094 635.924 478.533 639.553 472.622 643.072L456.508 651.995C439.02 661.091 419.993 667.846 401.326 674.099C397.029 675.538 392.744 676.98 388.315 677.969C386.679 678.334 384.739 678.908 383.068 678.724C381.764 678.581 380.119 677.833 378.865 677.414L368.644 673.678L347.562 665.599L347.551 665.585L348.314 664.192L348.808 663.986C348.738 663.259 346.623 662.483 345.89 662.111L329.12 654.305L310.789 645.488C302.399 641.524 291.999 637.488 285.036 631.311C284.619 626.846 286.086 621.768 287.27 617.522C287.798 616.536 287.881 615.936 288.938 615.503C290.772 615.958 292.125 617.069 293.83 617.612C299.881 621.55 305.655 625.929 311.975 629.418C328.04 638.286 345.28 645.537 362.498 651.806C368.625 654.036 375.054 656.709 381.562 657.437C383.328 657.635 385.041 657.826 386.794 657.443L388.125 657.109C397.005 654.949 405.86 651.728 414.375 648.417C427.817 643.19 440.97 637.148 453.672 630.312L478.508 615.407Z"/>
	<path fill="#99E8FB" transform="scale(0.666667 0.666667)" d="M38.3209 287.124L37.9568 218.744L109.023 200.843L109.946 266.237L38.5906 266.664L38.6567 287.178L38.3209 287.124Z"/>
	<defs>
		<linearGradient id="gradient_6" gradientUnits="userSpaceOnUse" x1="657.40314" y1="536.29376" x2="475.04559" y2="227.00227">
			<stop offset="0" stop-color="#A3A4C9"/>
			<stop offset="1" stop-color="#DCE2E8"/>
		</linearGradient>
	</defs>
	<path fill="url(#gradient_6)" transform="scale(0.666667 0.666667)" d="M574.995 194.004L580.977 167.15C581.313 165.616 581.809 163.27 583.169 162.398C603.258 175.575 623.301 187.478 645.938 195.791C650.199 197.357 654.779 199.223 659.221 200.192L703.648 212.127C711.636 214.269 719.759 217.077 727.992 218.105L727.909 265.771L727.819 288.06L684.039 287.99L671.052 288.003C668.296 288.008 665.475 287.874 662.764 288.458C661.388 289.928 660.296 291.205 659.848 293.232C658.693 298.454 659.381 305.077 659.379 310.452L659.488 339.199L659.204 358.788L655.781 408.998L656.238 414.036C655.991 424.514 653.328 436.62 649.501 446.348C647.256 457.346 642.305 468.836 637.822 479.122C628.382 500.786 616.046 522.158 601.575 540.857C584.495 562.929 563.72 582.375 542.137 599.966C533.075 607.351 524.025 615.059 514.278 621.534C506.736 626.545 499.215 630.642 490.615 633.579C489.307 630.746 482.779 616.96 480.646 615.375C479.89 614.813 479.328 615.2 478.508 615.407L478.884 614.604C479.321 611.718 484.604 609.876 486.316 607.146C487.472 605.724 489.366 604.519 490.863 603.427L498 597.99L511.123 587.623C513.655 585.775 515.403 583.593 517.684 581.625C518.374 581.03 519.377 579.833 520.123 579.373C521.266 578.669 520.2 579.687 521.037 578.864C521.871 578.043 522.615 577.313 523.558 576.606L523.873 576.373C524.077 575.759 524.417 575.223 524.998 574.873C527.298 573.491 528.726 570.8 531 569.433L531.373 569.248C531.623 568.495 531.855 568.404 532.5 567.934C533.354 567.31 534.111 566.442 534.934 565.875C536.526 564.779 539.726 561.884 540.748 560.248C541.736 558.666 544.358 555.626 545.998 554.623L546.562 554.434C547.217 552.683 550.757 549.776 552.239 548.596C556.533 544.833 560.338 539.732 564.192 535.477C577.199 521.117 589.793 505.504 599.103 488.462C603.085 481.172 606.122 473.617 609.689 466.151L622.901 425.119C622.914 424.65 623.834 423.317 624.08 422.853C624.968 421.176 625.72 419.463 626.453 417.714C626.973 416.168 627.529 414.665 627.77 413.045C628.218 412.522 628.452 412.268 628.585 411.574C628.737 410.787 628.583 411.186 628.944 410.437L629.227 409.873C629.646 408.85 629.973 408.345 630.559 407.438C630.913 406.888 631.162 406.439 631.588 405.925L635.809 400.688C636.174 400.15 636.414 399.687 636.841 399.175C637.76 398.072 638.631 396.741 639.276 395.46C640.226 393.572 641.355 391.607 642.019 389.602C642.28 388.812 642.299 387.957 642.559 387.188C642.892 386.198 642.721 385.506 642.934 384.562L643.247 383.812C643.6 382.262 643.311 379.971 643.309 378.321L643.25 361.577C643.231 360.806 642.928 360.345 642.919 359.581L642.508 327.736C642.493 327.01 642.184 326.579 642.166 325.844L642.1 312.41C642.085 311.736 641.806 311.298 641.795 310.654L641.728 294.406L641.047 275.823L640.67 257.626C640.645 256.08 641.024 253.099 640.312 251.816C638.586 251.867 636.867 251.747 635.547 252.938L635.074 377.066L613.125 377.066C610.578 376.185 606.695 376.733 603.89 376.735L584.833 376.691C587.421 367.368 586.34 356.468 586.349 346.822L586.06 307.886L586.007 276.503C585.678 255.156 585.171 233.623 586.623 212.311C586.156 210.464 584.586 209.698 583.125 208.53L573.782 201.097L574.995 194.004Z"/>
	<path fill="white" transform="scale(0.666667 0.666667)" d="M587.208 203.641L587.812 202.432L588.708 202.567C590.137 204.8 589.378 208.917 588.938 211.399L588.182 212.268L586.921 212.206C586.742 209.342 587.379 206.552 587.208 203.641Z"/>
	<path fill="#979DC5" transform="scale(0.666667 0.666667)" d="M609.689 466.151L610.147 466.536L610.406 466.781L610.904 465.737L611.235 466.02L598.312 494.058C598.158 493.134 597.996 493.202 598.5 492.375C598.985 491.581 599.487 490.661 599.713 489.756C599.909 488.971 600.359 488.327 600.738 487.623C601.061 487.024 601.108 486.835 601.031 486.186C599.114 488.746 597.728 491.926 596.041 494.672L583.908 512.508L569.189 530.627C567.172 533.004 564.264 535.479 562.666 538.104C561.798 539.53 560.108 540.787 559.037 542.184L552.739 548.805L552.239 548.596C556.533 544.833 560.338 539.732 564.192 535.477C577.199 521.117 589.793 505.504 599.103 488.462C603.085 481.172 606.122 473.617 609.689 466.151Z"/>
	<path fill="#8890B3" transform="scale(0.666667 0.666667)" d="M649.501 446.348C648.53 441.716 650.606 435.633 651.451 431.032C652.8 423.677 653.898 416.239 655.781 408.998L656.238 414.036C655.991 424.514 653.328 436.62 649.501 446.348Z"/>
	<path fill="#C6C5D7" transform="scale(0.666667 0.666667)" d="M573.782 201.097L574.995 194.004C577.975 195.861 580.617 198.365 583.272 200.658C584.415 201.645 585.804 203.141 587.208 203.641C587.379 206.552 586.742 209.342 586.921 212.206L586.623 212.311C586.156 210.464 584.586 209.698 583.125 208.53L573.782 201.097Z"/>
	<path fill="#A1A8CC" transform="scale(0.666667 0.666667)" d="M626.453 417.714L627.191 417.562C627.492 419.079 627.203 420.579 626.831 422.062C626.098 424.982 624.795 427.826 623.883 430.7L615.882 454.576C614.536 458.32 613.25 462.4 611.332 465.888L611.235 466.02L610.904 465.737L610.406 466.781L610.147 466.536L609.689 466.151L622.901 425.119C622.914 424.65 623.834 423.317 624.08 422.853C624.968 421.176 625.72 419.463 626.453 417.714Z"/>
	<path fill="white" transform="scale(0.666667 0.666667)" d="M727.594 265.843L727.589 274.502L658.939 274.505L659.252 265.753L704.297 265.811L727.594 265.843Z"/>
	<path fill="#4CC9EF" transform="scale(0.666667 0.666667)" d="M659.221 200.192L703.648 212.127C711.636 214.269 719.759 217.077 727.992 218.105L727.909 265.771L727.594 265.843L704.297 265.811C699.475 265.003 693.901 265.508 689.002 265.503L659.219 265.49L658.967 225L658.739 208.174C658.735 205.592 658.391 202.639 659.221 200.192Z"/>
	<defs>
		<linearGradient id="gradient_7" gradientUnits="userSpaceOnUse" x1="433.98941" y1="603.04944" x2="367.06671" y2="178.75551">
			<stop offset="0" stop-color="#1C3DA6"/>
			<stop offset="1" stop-color="#2C74F9"/>
		</linearGradient>
	</defs>
	<path fill="url(#gradient_7)" transform="scale(0.666667 0.666667)" d="M573.782 201.097L583.125 208.53C584.586 209.698 586.156 210.464 586.623 212.311C585.171 233.623 585.678 255.156 586.007 276.503L586.06 307.886L586.349 346.822C586.34 356.468 587.421 367.368 584.833 376.691L577.562 401.625C573.717 414.665 570.05 427.805 564.986 440.44C557.156 459.974 546.816 478.788 535.613 496.576C526.467 511.096 516.89 525.191 504.888 537.53C493.376 549.366 480.404 560.046 467.119 569.824C446.352 585.108 424.592 598.238 400.309 607.112C395.248 608.961 388.275 612.095 382.851 611.949C380.439 611.884 377.656 610.878 375.364 610.129L362.438 605.306C335.907 594.093 311.602 578.856 289.196 560.829C280.6 553.913 272.105 546.792 264.297 538.985L248.933 522.058C237.016 508.291 225.884 493.519 217.048 477.562C204.913 455.649 196.119 430.934 190.356 406.582C187.667 395.221 184.887 383.438 183.825 371.796C183.259 365.597 183.493 359.274 183.491 353.056L183.486 317.336L182.992 213.156L193.59 204.862L200.803 226.745L218.526 269.177L228.305 289.677C231.088 294.845 234.124 299.902 237.415 304.762C239.575 307.953 242.05 310.835 243.909 314.228L244.24 314.838L246.8 316.577C250.346 319.337 254.598 321.54 258.601 323.554C260.559 324.539 262.78 325.402 264.601 326.607C264.062 328.363 263.448 330.164 263.283 332C262.315 342.747 264.686 354.082 266.41 364.653C267.321 370.239 267.881 375.865 269.768 381.235L284.812 389.754L284.93 389.36C282.893 387.473 282.432 384.431 282.233 381.676L283.235 381.939C283.268 383.534 283.106 384.364 283.698 385.893C284.098 386.924 284.089 387.729 285.046 388.374C286.079 389.072 286.94 389.887 288 390.562L289.775 391.752C290.446 392.179 290.739 392.536 291.469 392.906L292.894 393.86C293.342 394.178 293.757 394.368 294.248 394.604C295.437 395.176 296.092 396.041 297.363 396.578C297.95 396.826 297.642 396.687 298.253 397.185L302.625 400.125L303.281 399.844L294.642 394.045C293.176 393.028 291.553 392.226 290.268 390.979C289.437 390.173 288.472 389.739 287.438 389.25L287.438 388.698C289.246 389.568 290.304 390.546 291.885 391.592C293.387 392.585 294.938 393.3 296.3 394.502C298.299 396.268 301.132 397.669 303.375 399.105C306.063 400.825 308.515 402.984 311.217 404.68C313.737 406.261 316.739 407.627 318.802 409.809C319.884 410.953 321.01 410.72 322.242 411.518C326.364 414.186 330.292 417.656 334.785 419.655L337.406 422.385C337.897 422.905 338.195 423.047 338.794 423.366C339.946 423.98 340.634 424.868 341.442 425.866L341.505 426.543L342.984 428.096L355.202 469.325C355.548 470.654 355.594 471.355 355.262 472.69C355.717 475.558 356.662 478.312 357.368 481.125L361.106 496.364C365.96 516.016 369.713 535.907 378.34 554.354C379.994 556.632 382.1 558.682 383.606 561.03L383.589 561.524L384.038 561.542C386.579 561.098 388.662 556.855 389.83 554.86C390.858 555.765 391.937 556.643 392.825 557.689C396.743 555.669 400.261 552.648 403.875 550.113C411.733 544.601 419.735 539.275 427.065 533.053L444.664 516.939L444.968 516.685C442.554 530.143 441.578 544.02 435.821 556.63L436.778 556.975L437.15 556.868L437.646 556.767C439.496 556.254 441.418 554.91 443.103 553.99L455.126 547.155C468.572 539.294 481.613 530.89 493.777 521.138C499.976 516.168 506.122 510.935 511.256 504.841C515.853 499.387 519.757 493.121 522.972 486.764C527.974 476.872 531.626 466.678 535.419 456.291C540.517 442.331 545.771 428.221 549.159 413.731C551.721 402.771 553.048 391.411 554.062 380.214C554.754 372.58 555.417 363.882 554.451 356.259C553.993 352.645 552.645 349.145 551.707 345.637L544.785 321.674L539.725 307.257L531.111 312.375C529.194 313.602 526.9 315.468 524.625 315.859L524.18 315.375C524.153 315.095 523.936 313.869 524.02 313.688C524.213 313.271 525.198 312.445 525.548 312.066C527.766 309.665 529.43 307.068 531.088 304.261L546.054 276.193C554.893 258.697 561.697 239.528 567.712 220.899L573.782 201.097Z"/>
	<path fill="#7C7582" transform="scale(0.666667 0.666667)" d="M318.938 512.707C321.522 514.6 323.543 517.147 325.79 519.413L334.777 527.714C346.289 537.829 358.794 546.642 371.625 554.987C375.472 557.489 379.231 560.285 383.269 562.455L383.589 561.524L384.038 561.542C386.579 561.098 388.662 556.855 389.83 554.86C390.858 555.765 391.937 556.643 392.825 557.689C396.743 555.669 400.261 552.648 403.875 550.113C411.733 544.601 419.735 539.275 427.065 533.053L444.664 516.939L444.968 516.685C442.554 530.143 441.578 544.02 435.821 556.63C429.73 563.94 421.971 568.802 413.611 573.148C404.482 577.894 395.179 581.592 385.48 584.978L383.293 585.097C368.852 580.126 355.689 573.518 342.886 565.199C338.67 562.459 334.571 559.996 331.136 556.274L330.476 555.464C328.87 550.334 326.773 545.447 325.345 540.221C323.751 534.389 322.884 528.466 321.578 522.579L318.938 512.707Z"/>
	<path fill="#99E8FB" transform="scale(0.666667 0.666667)" d="M389.83 554.86C390.858 555.765 391.937 556.643 392.825 557.689L384.938 562.947C384.371 562.799 383.814 562.671 383.269 562.455L383.589 561.524L384.038 561.542C386.579 561.098 388.662 556.855 389.83 554.86Z"/>
	<path fill="#626375" transform="scale(0.666667 0.666667)" d="M383.154 584.283L383.202 583.638C383.503 579.403 383.295 575.149 383.273 570.907C383.26 568.553 383.138 565.98 383.812 563.714L384.375 563.373C385.42 564.29 385.668 565.857 385.791 567.188C386.125 570.78 386.104 574.888 385.248 578.354C384.764 580.311 384.571 583.161 385.48 584.978L383.293 585.097L383.154 584.283Z"/>
	<path fill="#8890B3" transform="scale(0.666667 0.666667)" d="M331.136 556.274C332.297 556.274 333.215 556.343 334.279 556.843C337.928 558.556 341.002 561.308 344.33 563.533C349.357 566.894 354.66 570.032 360.007 572.845L372.574 579.026C376.004 580.585 379.796 581.821 382.831 584.049L383.154 584.283L383.293 585.097C368.852 580.126 355.689 573.518 342.886 565.199C338.67 562.459 334.571 559.996 331.136 556.274Z"/>
	<defs>
		<linearGradient id="gradient_8" gradientUnits="userSpaceOnUse" x1="319.89276" y1="558.43103" x2="215.00052" y2="361.31271">
			<stop offset="0" stop-color="#9D98AC"/>
			<stop offset="1" stop-color="#CCD0E2"/>
		</linearGradient>
	</defs>
	<path fill="url(#gradient_8)" transform="scale(0.666667 0.666667)" d="M210.536 361.411L219.101 368.18C221.344 369.986 223.622 371.52 225.329 373.891C226.911 376.087 227.344 380.218 228.028 382.852C229.699 389.292 233.292 394.957 237.938 399.65C243.659 405.43 250.013 410.611 256.56 415.424L281.354 433.017C287.979 437.76 297.18 443.027 301.414 450.188C303.087 453.019 303.798 456.67 304.54 459.838L308.062 476.546L313.591 501.854C313.955 503.592 314.334 508.588 315.479 509.671C316.719 510.529 318.239 511.33 318.938 512.707L321.578 522.579C322.884 528.466 323.751 534.389 325.345 540.221C326.773 545.447 328.87 550.334 330.476 555.464L329.604 555.649C329.211 555.744 329.163 555.783 328.698 555.736C327.723 555.637 326.492 554.897 325.611 554.469L318.018 550.585C296.772 539.061 274.957 525.555 258.15 508.008C250.523 500.046 244.594 490.561 239.72 480.71C231.402 463.894 225.897 445.718 221.084 427.641C215.319 405.991 210.066 383.962 210.536 361.411Z"/>
	<path fill="#152B79" transform="scale(0.666667 0.666667)" d="M315.479 509.671C316.719 510.529 318.239 511.33 318.938 512.707L321.578 522.579C322.884 528.466 323.751 534.389 325.345 540.221C326.773 545.447 328.87 550.334 330.476 555.464L329.604 555.649C324.349 544.076 320.914 532.373 317.829 520.083C316.947 516.568 315.811 513.308 315.479 509.671Z"/>
	<path fill="#152B79" transform="scale(0.666667 0.666667)" d="M250.475 444.188C250.792 444.104 250.907 444.063 251.273 444.029C259.796 443.234 269.209 447.697 275.786 452.799C285.06 459.994 291.87 471.46 293.132 483.218C293.819 489.615 293.218 494.945 288.998 500.036C286.826 501.679 284.558 502.652 281.812 502.85C276.089 503.263 271.411 500.199 267.324 496.56C253.561 484.303 249.91 467.114 249.216 449.438C249.148 447.705 249.232 445.508 250.475 444.188Z"/>
	<path fill="#C6C5D7" transform="scale(0.666667 0.666667)" d="M253.642 457.158C254.327 454.148 255.219 453.092 257.75 451.375C263.298 450.414 268.489 451.687 273.051 454.963C276.769 457.633 280.693 461.522 282.681 465.687C282.27 465.688 281.844 465.802 281.449 465.691C281.215 465.626 280.238 464.508 280.024 464.3L275.247 459.791C273.849 458.588 272.319 457.498 270.73 456.562C267.441 454.625 262.387 453.209 258.581 454.353L258.188 454.483C256.476 455.03 255.091 456.128 253.642 457.158Z"/>
	<path fill="#C6C5D7" transform="scale(0.666667 0.666667)" d="M253.411 461.099C256.272 463.51 257.974 466.693 259.859 469.875C264.448 477.622 269.002 487.325 276.508 492.62C277.049 493.003 277.457 493.391 277.905 493.875C277.832 494.396 277.778 494.752 277.566 495.24C272.022 494.361 266.51 491.643 262.632 487.564C255.547 480.113 253.145 471.143 253.411 461.099Z"/>
	<path fill="#8890B3" transform="scale(0.666667 0.666667)" d="M253.642 457.158C255.091 456.128 256.476 455.03 258.188 454.483L258.581 454.353C262.387 453.209 267.441 454.625 270.73 456.562C272.319 457.498 273.849 458.588 275.247 459.791L280.024 464.3C280.238 464.508 281.215 465.626 281.449 465.691C281.844 465.802 282.27 465.688 282.681 465.687C287.501 470.364 290.219 481.045 290.31 487.527C290.341 489.702 290.18 491.404 288.585 493.04C286.185 495.504 283.241 495.559 280.043 495.474L277.566 495.24C277.778 494.752 277.832 494.396 277.905 493.875C277.457 493.391 277.049 493.003 276.508 492.62C269.002 487.325 264.448 477.622 259.859 469.875C257.974 466.693 256.272 463.51 253.411 461.099L253.642 457.158Z"/>
	<path fill="white" transform="scale(0.666667 0.666667)" d="M210.536 361.411C210.433 359.808 211.209 357.861 211.628 356.307L214.485 346.125L225.255 306.929L237.384 313.235C238.992 314.123 241.217 316.129 242.984 316.4L244.24 314.838L246.8 316.577C250.346 319.337 254.598 321.54 258.601 323.554C260.559 324.539 262.78 325.402 264.601 326.607C264.062 328.363 263.448 330.164 263.283 332C262.315 342.747 264.686 354.082 266.41 364.653C267.321 370.239 267.881 375.865 269.768 381.235L284.812 389.754L284.93 389.36C282.893 387.473 282.432 384.431 282.233 381.676L283.235 381.939C283.268 383.534 283.106 384.364 283.698 385.893C284.098 386.924 284.089 387.729 285.046 388.374C286.079 389.072 286.94 389.887 288 390.562L289.775 391.752C290.446 392.179 290.739 392.536 291.469 392.906L292.894 393.86C293.342 394.178 293.757 394.368 294.248 394.604C295.437 395.176 296.092 396.041 297.363 396.578C297.95 396.826 297.642 396.687 298.253 397.185L302.625 400.125L303.281 399.844L294.642 394.045C293.176 393.028 291.553 392.226 290.268 390.979C289.437 390.173 288.472 389.739 287.438 389.25L287.438 388.698C289.246 389.568 290.304 390.546 291.885 391.592C293.387 392.585 294.938 393.3 296.3 394.502C298.299 396.268 301.132 397.669 303.375 399.105C306.063 400.825 308.515 402.984 311.217 404.68C313.737 406.261 316.739 407.627 318.802 409.809C319.884 410.953 321.01 410.72 322.242 411.518C326.364 414.186 330.292 417.656 334.785 419.655L337.406 422.385C337.897 422.905 338.195 423.047 338.794 423.366C339.946 423.98 340.634 424.868 341.442 425.866L341.505 426.543L342.984 428.096L355.202 469.325C355.548 470.654 355.594 471.355 355.262 472.69C355.717 475.558 356.662 478.312 357.368 481.125L361.106 496.364C365.96 516.016 369.713 535.907 378.34 554.354C379.994 556.632 382.1 558.682 383.606 561.03L383.589 561.524L383.269 562.455C379.231 560.285 375.472 557.489 371.625 554.987C358.794 546.642 346.289 537.829 334.777 527.714L325.79 519.413C323.543 517.147 321.522 514.6 318.938 512.707C318.239 511.33 316.719 510.529 315.479 509.671C314.334 508.588 313.955 503.592 313.591 501.854L308.062 476.546L304.54 459.838C303.798 456.67 303.087 453.019 301.414 450.188C297.18 443.027 287.979 437.76 281.354 433.017L256.56 415.424C250.013 410.611 243.659 405.43 237.938 399.65C233.292 394.957 229.699 389.292 228.028 382.852C227.344 380.218 226.911 376.087 225.329 373.891C223.622 371.52 221.344 369.986 219.101 368.18L210.536 361.411Z"/>
	<path fill="#3D4D76" transform="scale(0.666667 0.666667)" d="M325.506 416.833L296.066 397.312L296.625 397.132L324.357 415.037C330.06 418.771 336.265 422.168 341.505 426.543L342.984 428.096L355.202 469.325C355.548 470.654 355.594 471.355 355.262 472.69C352.006 461.118 348.906 449.662 344.722 438.375C343.233 434.358 341.612 429.198 338.669 425.975C335.381 422.375 329.635 419.454 325.506 416.833Z"/>
	<defs>
		<linearGradient id="gradient_9" gradientUnits="userSpaceOnUse" x1="336.18008" y1="549.06116" x2="350.22583" y2="422.66425">
			<stop offset="0" stop-color="#BED2E4"/>
			<stop offset="1" stop-color="#FCFBF7"/>
		</linearGradient>
	</defs>
	<path fill="url(#gradient_9)" transform="scale(0.666667 0.666667)" d="M325.506 416.833C329.635 419.454 335.381 422.375 338.669 425.975C341.612 429.198 343.233 434.358 344.722 438.375C348.906 449.662 352.006 461.118 355.262 472.69C355.717 475.558 356.662 478.312 357.368 481.125L361.106 496.364C365.96 516.016 369.713 535.907 378.34 554.354C376.212 554.28 374.593 553.944 372.729 552.876C365.874 548.948 359.543 543.813 353.163 539.179C347.807 535.288 342.282 531.878 337.381 527.369C332.938 523.281 329.12 518.582 324.804 514.365C321.591 511.226 317.21 508.85 315.661 504.346C313.984 499.468 313.447 494.074 312.575 489.012L308.293 465.312C307.395 460.337 306.715 455.226 305.393 450.349L303.487 447.384L326.807 422.808C326.466 422.375 325.774 422.011 325.316 421.687L325.875 421.312C325.875 420.042 326.158 418.831 325.314 417.844C325.325 417.094 325.241 417.426 325.506 416.833Z"/>
	<path fill="#C6C5D7" transform="scale(0.666667 0.666667)" d="M326.807 422.808L327.206 422.204C327.593 421.629 327.995 421.168 328.5 420.689L328.871 421.125C326.791 428.124 319.56 434.306 314.68 439.673L305.393 450.349L303.487 447.384L326.807 422.808Z"/>
	<path fill="#4CC9EF" transform="scale(0.666667 0.666667)" d="M578.59 164.408C579.506 163.121 580.855 161.982 582.361 161.489L583.169 162.398C581.809 163.27 581.313 165.616 580.977 167.15L574.995 194.004L573.782 201.097L567.712 220.899C561.697 239.528 554.893 258.697 546.054 276.193L531.088 304.261C529.43 307.068 527.766 309.665 525.548 312.066C525.198 312.445 524.213 313.271 524.02 313.688C523.936 313.869 524.153 315.095 524.18 315.375L524.625 315.859C526.9 315.468 529.194 313.602 531.111 312.375L539.725 307.257L544.785 321.674L551.707 345.637C552.645 349.145 553.993 352.645 554.451 356.259C555.417 363.882 554.754 372.58 554.062 380.214C553.048 391.411 551.721 402.771 549.159 413.731C545.771 428.221 540.517 442.331 535.419 456.291C531.626 466.678 527.974 476.872 522.972 486.764C519.757 493.121 515.853 499.387 511.256 504.841C506.122 510.935 499.976 516.168 493.777 521.138C481.613 530.89 468.572 539.294 455.126 547.155L443.103 553.99C441.418 554.91 439.496 556.254 437.646 556.767L437.15 556.868L436.778 556.975L435.821 556.63C441.578 544.02 442.554 530.143 444.968 516.685L444.664 516.939L427.065 533.053C419.735 539.275 411.733 544.601 403.875 550.113C400.261 552.648 396.743 555.669 392.825 557.689C391.937 556.643 390.858 555.765 389.83 554.86C388.662 556.855 386.579 561.098 384.038 561.542L383.589 561.524L383.606 561.03C382.1 558.682 379.994 556.632 378.34 554.354C369.713 535.907 365.96 516.016 361.106 496.364L357.368 481.125C356.662 478.312 355.717 475.558 355.262 472.69C355.594 471.355 355.548 470.654 355.202 469.325L342.984 428.096L341.505 426.543L341.442 425.866C340.634 424.868 339.946 423.98 338.794 423.366C338.195 423.047 337.897 422.905 337.406 422.385L334.785 419.655C330.292 417.656 326.364 414.186 322.242 411.518C321.01 410.72 319.884 410.953 318.802 409.809C316.739 407.627 313.737 406.261 311.217 404.68C308.515 402.984 306.063 400.825 303.375 399.105C301.132 397.669 298.299 396.268 296.3 394.502C294.938 393.3 293.387 392.585 291.885 391.592C290.304 390.546 289.246 389.568 287.438 388.698L287.438 389.25C288.472 389.739 289.437 390.173 290.268 390.979C291.553 392.226 293.176 393.028 294.642 394.045L303.281 399.844L302.625 400.125L298.253 397.185C297.642 396.687 297.95 396.826 297.363 396.578C296.092 396.041 295.437 395.176 294.248 394.604C293.757 394.368 293.342 394.178 292.894 393.86L291.469 392.906C290.739 392.536 290.446 392.179 289.775 391.752L288 390.562C286.94 389.887 286.079 389.072 285.046 388.374C284.089 387.729 284.098 386.924 283.698 385.893C283.106 384.364 283.268 383.534 283.235 381.939L282.233 381.676C282.432 384.431 282.893 387.473 284.93 389.36L284.812 389.754L269.768 381.235C267.881 375.865 267.321 370.239 266.41 364.653C264.686 354.082 262.315 342.747 263.283 332C263.448 330.164 264.062 328.363 264.601 326.607C268.066 327.616 271.85 330.518 274.999 332.348L297.693 345.529L383.152 395.224C383.597 392.493 383.365 389.546 383.352 386.782L383.307 373.027C383.307 370.41 382.79 367.026 384.115 364.759C383.545 363.407 383.177 362.043 382.508 360.726C382.262 359.777 382.409 358.341 382.401 357.33C382.38 354.437 382.667 351.215 382.171 348.373C381.71 345.734 382.057 342.704 382.031 340.004L381.997 318.304C385.679 317.954 390.392 314.481 393.576 312.599L425.533 292.054C431.263 289.018 436.582 284.406 441.939 280.675C445.577 278.142 449.542 275.969 453.083 273.337C461.017 269.108 468.561 263.28 475.981 258.182C485.251 251.814 495.032 245.753 503.583 238.439L483.061 221.862L482.539 220.363C487.978 214.778 495.297 210.586 501.936 206.534L521.902 194.321C528.665 190.176 535.583 185.256 542.711 181.823C543.851 181.792 545.302 181.121 546.375 180.685C550.584 178.979 554.211 176.254 558.284 174.318C561.428 172.823 564.741 171.733 567.805 170.074C571.64 167.998 574.178 165.393 578.59 164.408ZM264.601 326.607C264.062 328.363 263.448 330.164 263.283 332C262.315 342.747 264.686 354.082 266.41 364.653C267.321 370.239 267.881 375.865 269.768 381.235L284.812 389.754L284.93 389.36C282.893 387.473 282.432 384.431 282.233 381.676L283.235 381.939C283.268 383.534 283.106 384.364 283.698 385.893C284.098 386.924 284.089 387.729 285.046 388.374C286.079 389.072 286.94 389.887 288 390.562L289.775 391.752C290.446 392.179 290.739 392.536 291.469 392.906L292.894 393.86C293.342 394.178 293.757 394.368 294.248 394.604C295.437 395.176 296.092 396.041 297.363 396.578C297.95 396.826 297.642 396.687 298.253 397.185L302.625 400.125L303.281 399.844L294.642 394.045C293.176 393.028 291.553 392.226 290.268 390.979C289.437 390.173 288.472 389.739 287.438 389.25L287.438 388.698C289.246 389.568 290.304 390.546 291.885 391.592C293.387 392.585 294.938 393.3 296.3 394.502C298.299 396.268 301.132 397.669 303.375 399.105C306.063 400.825 308.515 402.984 311.217 404.68C313.737 406.261 316.739 407.627 318.802 409.809C319.884 410.953 321.01 410.72 322.242 411.518C326.364 414.186 330.292 417.656 334.785 419.655L337.406 422.385C337.897 422.905 338.195 423.047 338.794 423.366C339.946 423.98 340.634 424.868 341.442 425.866L341.505 426.543L342.984 428.096L360.938 442.786C362.067 443.685 364.024 445.773 365.385 446.069C367.448 446.26 370.089 448.609 371.625 450.027C372.505 450.84 373.474 451.064 374.441 451.688C375.761 452.538 376.199 453.122 377.812 453.531C379.488 453.193 380.891 452.831 382.064 451.509L383.255 451.157C383.693 451.406 383.732 451.749 383.85 452.25C384.092 453.272 384.101 454.334 384.394 455.347C384.507 452.787 384.186 450.148 384.168 447.573C384.137 443.026 384.918 426.012 383.334 423.005C384.791 423.111 388.497 420.277 389.949 419.525L413.162 407.254L459.06 380.187C468.707 374.536 478.231 368.09 488.29 363.226C488.54 371.596 485.957 380.396 485.147 388.798C489.47 386.408 496.532 383.594 498.419 378.662C499.54 375.735 500.106 372.358 500.816 369.308C502.476 362.18 503.828 354.997 504.594 347.717C504.955 344.285 505.382 340.827 505.127 337.374C504.852 333.647 503.835 330.308 502.354 326.9L419.405 375.911L395.532 389.686C392.12 391.617 388.257 394.532 384.502 395.559C383.791 395.753 383.765 395.557 383.152 395.224L297.693 345.529L274.999 332.348C271.85 330.518 268.066 327.616 264.601 326.607ZM384.541 456.542L384.394 455.347C384.101 454.334 384.092 453.272 383.85 452.25C383.732 451.749 383.693 451.406 383.255 451.157L382.064 451.509C380.891 452.831 379.488 453.193 377.812 453.531C376.199 453.122 375.761 452.538 374.441 451.688C373.474 451.064 372.505 450.84 371.625 450.027C370.089 448.609 367.448 446.26 365.385 446.069C364.024 445.773 362.067 443.685 360.938 442.786L342.984 428.096L355.202 469.325C355.548 470.654 355.594 471.355 355.262 472.69C355.717 475.558 356.662 478.312 357.368 481.125L361.106 496.364C365.96 516.016 369.713 535.907 378.34 554.354C379.994 556.632 382.1 558.682 383.606 561.03L383.589 561.524L384.038 561.542C386.579 561.098 388.662 556.855 389.83 554.86C390.756 551.571 392.66 548.142 393.858 544.875L400.495 523.875L412.512 479.628L416.255 465.44C417.238 461.665 418.098 457.749 419.763 454.201C422.265 445.046 425.086 435.888 430.342 427.883L430.337 427.829C431.836 424.776 435.504 421.951 438.536 420.514L439.185 419.812C440.303 418.897 441.731 417.874 442.468 416.617C435.81 420.417 429.37 424.694 423.285 429.355L393.74 453.195L387.845 457.903C386.926 458.634 386.028 459.57 384.909 459.938C384.83 458.794 384.806 457.66 384.541 456.542Z"/>
	<path fill="#99E8FB" transform="scale(0.666667 0.666667)" d="M430.342 427.883C431.193 430.115 430.933 431.24 429.938 433.435L425.195 443.613L422.486 450.259C421.946 451.642 421.409 453.417 420.379 454.512L419.763 454.201C422.265 445.046 425.086 435.888 430.342 427.883Z"/>
	<path fill="#152B79" transform="scale(0.666667 0.666667)" d="M444.968 516.685C446.599 513.952 449.186 511.467 451.277 509.055L446.349 526.943C443.494 537.25 440.977 547.093 436.778 556.975L435.821 556.63C441.578 544.02 442.554 530.143 444.968 516.685Z"/>
	<path fill="#99E8FB" transform="scale(0.666667 0.666667)" d="M439.185 419.812C440.498 421.721 441.78 423.749 443.324 425.479C450.388 433.393 459.396 439.207 466.295 447.41C464.94 451.223 463.301 454.491 462.297 458.504L455.388 492.057L453.372 502.379C452.931 504.696 452.703 507.147 451.312 509.112L450.486 509.062C450.488 508.342 450.662 508.047 450.969 507.418C453.341 502.568 453.917 495.621 454.845 490.284L458.215 473.163C459.816 464.611 460.927 455.234 464.397 447.222C459.524 440.996 452.773 435.909 446.993 430.534C443.904 427.66 440.261 424.439 438.536 420.514L439.185 419.812Z"/>
	<path fill="#152B79" transform="scale(0.666667 0.666667)" d="M512.539 442.566L513.238 442.507C514.811 442.403 515.655 442.801 516.824 443.812C517.874 446.497 517.2 451.119 516.939 454.004C516.198 462.193 515.513 470.195 512.515 477.949C508.933 487.215 502.448 496.299 493.034 500.219C489.035 501.885 484.611 502.025 480.583 500.428C477.75 498.545 475.705 496.284 474.812 492.938C472.494 484.249 476.205 473.662 480.395 466.125C487.387 453.549 499.057 446.381 512.539 442.566Z"/>
	<path fill="#99E8FB" transform="scale(0.666667 0.666667)" d="M478.56 487.919C477.86 485.076 478.473 481.261 479.159 478.446C481.387 469.306 487.74 458.757 495.877 453.791C495.959 455.047 496.208 456.268 495.374 457.312C493.524 459.629 491.073 461.494 489.08 463.688C487.522 465.401 486.268 467.42 485.157 469.444C483.474 472.512 481.82 475.705 480.801 479.062C480.019 481.638 480.136 486.007 478.56 487.919Z"/>
	<path fill="#4CC9EF" transform="scale(0.666667 0.666667)" d="M495.877 453.791C499.363 451.718 503.088 449.575 507.312 450.581C509.073 451 510.975 452.395 511.851 454.001C513.902 457.765 513.004 470.263 511.412 474.523C508.536 482.219 502.908 488.676 495.273 491.928C491.698 493.451 486.964 494.731 483.188 493.23C480.836 492.295 479.465 490.182 478.56 487.919C480.136 486.007 480.019 481.638 480.801 479.062C481.82 475.705 483.474 472.512 485.157 469.444C486.268 467.42 487.522 465.401 489.08 463.688C491.073 461.494 493.524 459.629 495.374 457.312C496.208 456.268 495.959 455.047 495.877 453.791Z"/>
	<path fill="#2F93E5" transform="scale(0.666667 0.666667)" d="M384.541 456.542C384.806 457.66 384.83 458.794 384.909 459.938C386.028 459.57 386.926 458.634 387.845 457.903L393.74 453.195L423.285 429.355C429.37 424.694 435.81 420.417 442.468 416.617C441.731 417.874 440.303 418.897 439.185 419.812L438.536 420.514C435.504 421.951 431.836 424.776 430.337 427.829L430.342 427.883C425.086 435.888 422.265 445.046 419.763 454.201C418.098 457.749 417.238 461.665 416.255 465.44L412.512 479.628L400.495 523.875L393.858 544.875C392.66 548.142 390.756 551.571 389.83 554.86C388.662 556.855 386.579 561.098 384.038 561.542L383.589 561.524L383.606 561.03C382.1 558.682 379.994 556.632 378.34 554.354C369.713 535.907 365.96 516.016 361.106 496.364L357.368 481.125C356.662 478.312 355.717 475.558 355.262 472.69C355.594 471.355 355.548 470.654 355.202 469.325L342.984 428.096L360.938 442.786C362.067 443.685 364.024 445.773 365.385 446.069C367.448 446.26 370.089 448.609 371.625 450.027C372.505 450.84 373.474 451.064 374.441 451.688C375.761 452.538 376.199 453.122 377.812 453.531C379.488 453.193 380.891 452.831 382.064 451.509L383.255 451.157C383.693 451.406 383.732 451.749 383.85 452.25C384.092 453.272 384.101 454.334 384.394 455.347L384.541 456.542ZM342.984 428.096L355.202 469.325C355.548 470.654 355.594 471.355 355.262 472.69C355.717 475.558 356.662 478.312 357.368 481.125L361.106 496.364C365.96 516.016 369.713 535.907 378.34 554.354C379.994 556.632 382.1 558.682 383.606 561.03C384.339 557.928 383.961 554.227 383.961 551.035L383.964 532.754L384.008 461.799C384.465 460.084 384.46 458.307 384.541 456.542L384.394 455.347C384.101 454.334 384.092 453.272 383.85 452.25C383.732 451.749 383.693 451.406 383.255 451.157L382.064 451.509C380.891 452.831 379.488 453.193 377.812 453.531C376.199 453.122 375.761 452.538 374.441 451.688C373.474 451.064 372.505 450.84 371.625 450.027C370.089 448.609 367.448 446.26 365.385 446.069C364.024 445.773 362.067 443.685 360.938 442.786L342.984 428.096Z"/>
	<path fill="#8890B3" transform="scale(0.666667 0.666667)" d="M342.984 428.096L360.938 442.786C362.067 443.685 364.024 445.773 365.385 446.069C367.448 446.26 370.089 448.609 371.625 450.027C372.505 450.84 373.474 451.064 374.441 451.688C375.761 452.538 376.199 453.122 377.812 453.531C379.488 453.193 380.891 452.831 382.064 451.509L383.255 451.157C383.693 451.406 383.732 451.749 383.85 452.25C384.092 453.272 384.101 454.334 384.394 455.347L384.541 456.542C384.46 458.307 384.465 460.084 384.008 461.799L383.964 532.754L383.961 551.035C383.961 554.227 384.339 557.928 383.606 561.03C382.1 558.682 379.994 556.632 378.34 554.354C369.713 535.907 365.96 516.016 361.106 496.364L357.368 481.125C356.662 478.312 355.717 475.558 355.262 472.69C355.594 471.355 355.548 470.654 355.202 469.325L342.984 428.096ZM365.385 446.069L384.008 461.799C384.465 460.084 384.46 458.307 384.541 456.542L384.394 455.347C384.101 454.334 384.092 453.272 383.85 452.25C383.732 451.749 383.693 451.406 383.255 451.157L382.064 451.509C380.891 452.831 379.488 453.193 377.812 453.531C376.199 453.122 375.761 452.538 374.441 451.688C373.474 451.064 372.505 450.84 371.625 450.027C370.089 448.609 367.448 446.26 365.385 446.069Z"/>
	<path fill="#E1F1F5" transform="scale(0.666667 0.666667)" d="M542.711 181.823C543.851 181.792 545.302 181.121 546.375 180.685C550.584 178.979 554.211 176.254 558.284 174.318C561.428 172.823 564.741 171.733 567.805 170.074C571.64 167.998 574.178 165.393 578.59 164.408C567.125 185.129 553.521 204.566 540.619 224.39L515.927 262.151C510.33 270.15 504.718 277.966 497.659 284.765C482.327 299.533 463.909 311.723 446.334 323.669L421.821 340.414C419.488 341.913 416.881 342.891 414.544 344.373L384.115 364.759C383.545 363.407 383.177 362.043 382.508 360.726C382.262 359.777 382.409 358.341 382.401 357.33C382.38 354.437 382.667 351.215 382.171 348.373C381.71 345.734 382.057 342.704 382.031 340.004L381.997 318.304C385.679 317.954 390.392 314.481 393.576 312.599L425.533 292.054C431.263 289.018 436.582 284.406 441.939 280.675C445.577 278.142 449.542 275.969 453.083 273.337C461.017 269.108 468.561 263.28 475.981 258.182C485.251 251.814 495.032 245.753 503.583 238.439L483.061 221.862L482.539 220.363C487.978 214.778 495.297 210.586 501.936 206.534L521.902 194.321C528.665 190.176 535.583 185.256 542.711 181.823Z"/>
	<path fill="#152B79" transform="scale(0.666667 0.666667)" d="M264.601 326.607C268.066 327.616 271.85 330.518 274.999 332.348L297.693 345.529L383.152 395.224C383.765 395.557 383.791 395.753 384.502 395.559C388.257 394.532 392.12 391.617 395.532 389.686L419.405 375.911L502.354 326.9C503.835 330.308 504.852 333.647 505.127 337.374C505.382 340.827 504.955 344.285 504.594 347.717C503.828 354.997 502.476 362.18 500.816 369.308C500.106 372.358 499.54 375.735 498.419 378.662C496.532 383.594 489.47 386.408 485.147 388.798C485.957 380.396 488.54 371.596 488.29 363.226C478.231 368.09 468.707 374.536 459.06 380.187L413.162 407.254L389.949 419.525C388.497 420.277 384.791 423.111 383.334 423.005C384.918 426.012 384.137 443.026 384.168 447.573C384.186 450.148 384.507 452.787 384.394 455.347C384.101 454.334 384.092 453.272 383.85 452.25C383.732 451.749 383.693 451.406 383.255 451.157L382.064 451.509C380.891 452.831 379.488 453.193 377.812 453.531C376.199 453.122 375.761 452.538 374.441 451.688C373.474 451.064 372.505 450.84 371.625 450.027C370.089 448.609 367.448 446.26 365.385 446.069C364.024 445.773 362.067 443.685 360.938 442.786L342.984 428.096L341.505 426.543L341.442 425.866C340.634 424.868 339.946 423.98 338.794 423.366C338.195 423.047 337.897 422.905 337.406 422.385L334.785 419.655C330.292 417.656 326.364 414.186 322.242 411.518C321.01 410.72 319.884 410.953 318.802 409.809C316.739 407.627 313.737 406.261 311.217 404.68C308.515 402.984 306.063 400.825 303.375 399.105C301.132 397.669 298.299 396.268 296.3 394.502C294.938 393.3 293.387 392.585 291.885 391.592C290.304 390.546 289.246 389.568 287.438 388.698L287.438 389.25C288.472 389.739 289.437 390.173 290.268 390.979C291.553 392.226 293.176 393.028 294.642 394.045L303.281 399.844L302.625 400.125L298.253 397.185C297.642 396.687 297.95 396.826 297.363 396.578C296.092 396.041 295.437 395.176 294.248 394.604C293.757 394.368 293.342 394.178 292.894 393.86L291.469 392.906C290.739 392.536 290.446 392.179 289.775 391.752L288 390.562C286.94 389.887 286.079 389.072 285.046 388.374C284.089 387.729 284.098 386.924 283.698 385.893C283.106 384.364 283.268 383.534 283.235 381.939L282.233 381.676C282.432 384.431 282.893 387.473 284.93 389.36L284.812 389.754L269.768 381.235C267.881 375.865 267.321 370.239 266.41 364.653C264.686 354.082 262.315 342.747 263.283 332C263.448 330.164 264.062 328.363 264.601 326.607ZM334.785 419.655L337.406 422.385C337.897 422.905 338.195 423.047 338.794 423.366C339.946 423.98 340.634 424.868 341.442 425.866L341.505 426.543L342.984 428.096L360.938 442.786C362.067 443.685 364.024 445.773 365.385 446.069C367.448 446.26 370.089 448.609 371.625 450.027C372.505 450.84 373.474 451.064 374.441 451.688C375.761 452.538 376.199 453.122 377.812 453.531C379.488 453.193 380.891 452.831 382.064 451.509L383.255 451.157C383.693 451.406 383.732 451.749 383.85 452.25C384.092 453.272 384.101 454.334 384.394 455.347C384.507 452.787 384.186 450.148 384.168 447.573C384.137 443.026 384.918 426.012 383.334 423.005C381.739 421.841 380.161 420.954 378.401 420.075C373.925 416.749 367.939 414.152 363.05 411.398L361.666 411.899C362.549 412.63 363.339 413.098 364.312 413.687C364.851 414.012 365.317 414.492 365.756 414.938C364.281 415.036 363.345 413.955 361.996 413.461C361.325 413.216 360.688 413.383 360.001 413.355L359.084 413.197L359.25 412.5L358.953 412.253L357.377 410.719C358.874 410.762 358.883 411.891 360.236 411.547L358.038 409.883C357.161 409.133 356.495 408.946 355.558 408.401L355.212 408.086L354.54 408.194L354.288 407.858C353.853 407.338 353.426 407.118 352.875 406.746L352.383 406.391C351.75 405.97 351.154 405.791 350.438 405.559L350.062 404.762L349.698 404.77C348.985 404.677 348.603 404.266 348.053 403.855C347.397 403.365 346.68 402.982 345.965 402.587C344.52 403.331 343.129 404.045 341.805 404.996C341.058 404.881 340.523 404.716 339.845 404.411C339.052 404.054 338.557 404.047 337.706 404.049C335.499 404.051 333.438 403.697 331.313 403.125L330.714 402.971C329.429 402.542 328.849 401.555 327.378 401.481L327.146 402.245L327.524 402.636C329.956 405.193 330.918 407.691 334.12 409.575C335.168 410.192 336.281 411.363 336.583 412.584C336.945 414.047 336.638 416.226 335.96 417.539C335.207 417.643 334.481 417.73 333.75 417.941L334.688 417.941C335.138 418.732 334.95 418.8 334.785 419.655ZM282.233 381.676L283.235 381.939C283.268 383.534 283.106 384.364 283.698 385.893C284.098 386.924 284.089 387.729 285.046 388.374C286.079 389.072 286.94 389.887 288 390.562L289.775 391.752C290.446 392.179 290.739 392.536 291.469 392.906L292.894 393.86C293.342 394.178 293.757 394.368 294.248 394.604C295.437 395.176 296.092 396.041 297.363 396.578C297.95 396.826 297.642 396.687 298.253 397.185L302.625 400.125L303.281 399.844L294.642 394.045C293.176 393.028 291.553 392.226 290.268 390.979C289.437 390.173 288.472 389.739 287.438 389.25L287.438 388.698C289.246 389.568 290.304 390.546 291.885 391.592C293.387 392.585 294.938 393.3 296.3 394.502C298.299 396.268 301.132 397.669 303.375 399.105C306.063 400.825 308.515 402.984 311.217 404.68C313.737 406.261 316.739 407.627 318.802 409.809C319.884 410.953 321.01 410.72 322.242 411.518C326.364 414.186 330.292 417.656 334.785 419.655C334.95 418.8 335.138 418.732 334.688 417.941L333.75 417.941C334.481 417.73 335.207 417.643 335.96 417.539C336.638 416.226 336.945 414.047 336.583 412.584C336.281 411.363 335.168 410.192 334.12 409.575C330.918 407.691 329.956 405.193 327.524 402.636L327.146 402.245L327.378 401.481C328.849 401.555 329.429 402.542 330.714 402.971L331.313 403.125C333.438 403.697 335.499 404.051 337.706 404.049C338.557 404.047 339.052 404.054 339.845 404.411C340.523 404.716 341.058 404.881 341.805 404.996C343.129 404.045 344.52 403.331 345.965 402.587C346.68 402.982 347.397 403.365 348.053 403.855C348.603 404.266 348.985 404.677 349.698 404.77L350.062 404.762L350.438 405.559C351.154 405.791 351.75 405.97 352.383 406.391L352.875 406.746C353.426 407.118 353.853 407.338 354.288 407.858L354.54 408.194L355.212 408.086L355.558 408.401C356.495 408.946 357.161 409.133 358.038 409.883L360.236 411.547C358.883 411.891 358.874 410.762 357.377 410.719L358.953 412.253L359.25 412.5L359.084 413.197L360.001 413.355C360.688 413.383 361.325 413.216 361.996 413.461C363.345 413.955 364.281 415.036 365.756 414.938C365.317 414.492 364.851 414.012 364.312 413.687C363.339 413.098 362.549 412.63 361.666 411.899L363.05 411.398L279.799 362.771C279.221 364.042 281.612 379.297 282.233 381.676Z"/>
	<defs>
		<linearGradient id="gradient_10" gradientUnits="userSpaceOnUse" x1="344.74347" y1="404.29013" x2="276.75461" y2="381.87009">
			<stop offset="0" stop-color="white" stop-opacity="0.81960785"/>
			<stop offset="1" stop-color="white" stop-opacity="0.95294118"/>
		</linearGradient>
	</defs>
	<path fill="url(#gradient_10)" transform="scale(0.666667 0.666667)" d="M282.233 381.676C281.612 379.297 279.221 364.042 279.799 362.771L363.05 411.398L361.666 411.899C362.549 412.63 363.339 413.098 364.312 413.687C364.851 414.012 365.317 414.492 365.756 414.938C364.281 415.036 363.345 413.955 361.996 413.461C361.325 413.216 360.688 413.383 360.001 413.355L359.084 413.197L359.25 412.5L358.953 412.253L357.377 410.719C358.874 410.762 358.883 411.891 360.236 411.547L358.038 409.883C357.161 409.133 356.495 408.946 355.558 408.401L355.212 408.086L354.54 408.194L354.288 407.858C353.853 407.338 353.426 407.118 352.875 406.746L352.383 406.391C351.75 405.97 351.154 405.791 350.438 405.559L350.062 404.762L349.698 404.77C348.985 404.677 348.603 404.266 348.053 403.855C347.397 403.365 346.68 402.982 345.965 402.587C344.52 403.331 343.129 404.045 341.805 404.996C341.058 404.881 340.523 404.716 339.845 404.411C339.052 404.054 338.557 404.047 337.706 404.049C335.499 404.051 333.438 403.697 331.313 403.125L330.714 402.971C329.429 402.542 328.849 401.555 327.378 401.481L327.146 402.245L327.524 402.636C329.956 405.193 330.918 407.691 334.12 409.575C335.168 410.192 336.281 411.363 336.583 412.584C336.945 414.047 336.638 416.226 335.96 417.539C335.207 417.643 334.481 417.73 333.75 417.941L334.688 417.941C335.138 418.732 334.95 418.8 334.785 419.655C330.292 417.656 326.364 414.186 322.242 411.518C321.01 410.72 319.884 410.953 318.802 409.809C316.739 407.627 313.737 406.261 311.217 404.68C308.515 402.984 306.063 400.825 303.375 399.105C301.132 397.669 298.299 396.268 296.3 394.502C294.938 393.3 293.387 392.585 291.885 391.592C290.304 390.546 289.246 389.568 287.438 388.698L287.438 389.25C288.472 389.739 289.437 390.173 290.268 390.979C291.553 392.226 293.176 393.028 294.642 394.045L303.281 399.844L302.625 400.125L298.253 397.185C297.642 396.687 297.95 396.826 297.363 396.578C296.092 396.041 295.437 395.176 294.248 394.604C293.757 394.368 293.342 394.178 292.894 393.86L291.469 392.906C290.739 392.536 290.446 392.179 289.775 391.752L288 390.562C286.94 389.887 286.079 389.072 285.046 388.374C284.089 387.729 284.098 386.924 283.698 385.893C283.106 384.364 283.268 383.534 283.235 381.939L282.233 381.676Z"/>
	<defs>
		<linearGradient id="gradient_11" gradientUnits="userSpaceOnUse" x1="382.62366" y1="430.91553" x2="323.51227" y2="419.15451">
			<stop offset="0" stop-color="#FFFFFE" stop-opacity="0.43921569"/>
			<stop offset="1" stop-color="white" stop-opacity="0.9254902"/>
		</linearGradient>
	</defs>
	<path fill="url(#gradient_11)" transform="scale(0.666667 0.666667)" d="M334.785 419.655C334.95 418.8 335.138 418.732 334.688 417.941L333.75 417.941C334.481 417.73 335.207 417.643 335.96 417.539C336.638 416.226 336.945 414.047 336.583 412.584C336.281 411.363 335.168 410.192 334.12 409.575C330.918 407.691 329.956 405.193 327.524 402.636L327.146 402.245L327.378 401.481C328.849 401.555 329.429 402.542 330.714 402.971L331.313 403.125C333.438 403.697 335.499 404.051 337.706 404.049C338.557 404.047 339.052 404.054 339.845 404.411C340.523 404.716 341.058 404.881 341.805 404.996C343.129 404.045 344.52 403.331 345.965 402.587C346.68 402.982 347.397 403.365 348.053 403.855C348.603 404.266 348.985 404.677 349.698 404.77L350.062 404.762L350.438 405.559C351.154 405.791 351.75 405.97 352.383 406.391L352.875 406.746C353.426 407.118 353.853 407.338 354.288 407.858L354.54 408.194L355.212 408.086L355.558 408.401C356.495 408.946 357.161 409.133 358.038 409.883L360.236 411.547C358.883 411.891 358.874 410.762 357.377 410.719L358.953 412.253L359.25 412.5L359.084 413.197L360.001 413.355C360.688 413.383 361.325 413.216 361.996 413.461C363.345 413.955 364.281 415.036 365.756 414.938C365.317 414.492 364.851 414.012 364.312 413.687C363.339 413.098 362.549 412.63 361.666 411.899L363.05 411.398C367.939 414.152 373.925 416.749 378.401 420.075C380.161 420.954 381.739 421.841 383.334 423.005C384.918 426.012 384.137 443.026 384.168 447.573C384.186 450.148 384.507 452.787 384.394 455.347C384.101 454.334 384.092 453.272 383.85 452.25C383.732 451.749 383.693 451.406 383.255 451.157L382.064 451.509C380.891 452.831 379.488 453.193 377.812 453.531C376.199 453.122 375.761 452.538 374.441 451.688C373.474 451.064 372.505 450.84 371.625 450.027C370.089 448.609 367.448 446.26 365.385 446.069C364.024 445.773 362.067 443.685 360.938 442.786L342.984 428.096L341.505 426.543L341.442 425.866C340.634 424.868 339.946 423.98 338.794 423.366C338.195 423.047 337.897 422.905 337.406 422.385L334.785 419.655ZM382.064 451.509L383.255 451.157C383.693 451.406 383.732 451.749 383.85 452.25C384.092 453.272 384.101 454.334 384.394 455.347C384.507 452.787 384.186 450.148 384.168 447.573C384.137 443.026 384.918 426.012 383.334 423.005C381.739 421.841 380.161 420.954 378.401 420.075L377.477 420.575L378.537 421.284C379.328 421.812 379.904 422.201 380.432 423L380.352 423.315L380.248 423.748L380.142 424.145C379.932 425.187 379.859 427.386 380.434 428.25L380.434 435.613C380.434 436.766 380.702 438.16 380.059 439.125C380.084 440.433 380.318 442.086 379.688 443.25L379.875 443.812L380.344 445.689L381.188 445.691L381.191 447.938L381.564 448.127C381.569 449.219 381.41 450.074 381.901 451.029L382.064 451.509Z"/>
	<defs>
		<linearGradient id="gradient_12" gradientUnits="userSpaceOnUse" x1="383.63055" y1="437.34683" x2="380.51205" y2="437.16846">
			<stop offset="0" stop-color="#FFFFFE" stop-opacity="0.40000001"/>
			<stop offset="1" stop-color="#FFFFFE" stop-opacity="0.43921569"/>
		</linearGradient>
	</defs>
	<path fill="url(#gradient_12)" transform="scale(0.666667 0.666667)" d="M382.064 451.509L381.901 451.029C381.41 450.074 381.569 449.219 381.564 448.127L381.191 447.938L381.188 445.691L380.344 445.689L379.875 443.812L379.688 443.25C380.318 442.086 380.084 440.433 380.059 439.125C380.702 438.16 380.434 436.766 380.434 435.613L380.434 428.25C379.859 427.386 379.932 425.187 380.142 424.145L380.248 423.748L380.352 423.315L380.432 423C379.904 422.201 379.328 421.812 378.537 421.284L377.477 420.575L378.401 420.075C380.161 420.954 381.739 421.841 383.334 423.005C384.918 426.012 384.137 443.026 384.168 447.573C384.186 450.148 384.507 452.787 384.394 455.347C384.101 454.334 384.092 453.272 383.85 452.25C383.732 451.749 383.693 451.406 383.255 451.157L382.064 451.509Z"/>
	<path fill="#C6C5D7" transform="scale(0.666667 0.666667)" d="M503.985 78.6991C507.285 81.3727 511.238 83.1875 514.941 85.2227L534.018 95.6158L595.48 129.084L613.427 138.878C616.959 140.788 620.832 142.549 624.166 144.778C622.861 147.558 621.544 151.262 619.622 153.635L601.833 153.699L592.316 149.062C591.322 149.307 591.372 149.552 590.82 150.433C588.693 154.544 585.664 158.268 582.361 161.489C580.855 161.982 579.506 163.121 578.59 164.408C574.178 165.393 571.64 167.998 567.805 170.074C564.741 171.733 561.428 172.823 558.284 174.318C554.211 176.254 550.584 178.979 546.375 180.685C545.302 181.121 543.851 181.792 542.711 181.823C535.583 185.256 528.665 190.176 521.902 194.321L501.936 206.534C495.297 210.586 487.978 214.778 482.539 220.363L483.061 221.862L503.583 238.439C495.032 245.753 485.251 251.814 475.981 258.182C468.561 263.28 461.017 269.108 453.083 273.337C449.542 275.969 445.577 278.142 441.939 280.675C436.582 284.406 431.263 289.018 425.533 292.054L393.576 312.599C390.392 314.481 385.679 317.954 381.997 318.304L382.031 340.004C382.057 342.704 381.71 345.734 382.171 348.373C382.667 351.215 382.38 354.437 382.401 357.33C382.409 358.341 382.262 359.777 382.508 360.726L382.873 365.13C377.564 361.144 371.747 357.682 366.19 354.045L343.238 338.538C314.446 318.744 285.352 299.631 261.781 273.462C255.825 266.85 250.494 259.523 245.201 252.375L229.849 231.375L217.735 212.759L198.378 182.363C194.583 176.468 189.941 170.631 186.989 164.261L187.288 163.592L184.536 161.037L181.846 155.625C181.101 154.535 180.115 154.665 178.925 154.514C173.234 153.579 169.88 156.102 165.182 158.794C163.994 159.564 162.359 160.415 161.587 161.625C161.821 162.355 162.037 162.923 162.469 163.559C161.076 164.256 159.955 164.956 158.356 164.914L157.099 165.121C153.094 167.74 148.656 169.8 144.273 171.706L144.402 170.008L144.71 147C144.747 145.221 144.661 144.739 145.97 143.474C149.954 140.506 154.379 138.25 158.625 135.696L201.666 111.484L234.872 92.8519C241.97 88.8332 248.97 84.5725 256.323 81.0314C258.337 80.0612 260.258 79.5281 262.436 79.0898L263.438 80.3696C266.27 83.9364 268.336 87.996 270.698 91.8775L279.865 105.426L284.675 105.056C284.201 105.683 283.804 106.364 283.13 106.781L282.556 106.808C282.76 107.991 282.249 108.352 282.383 109.52C285.549 109.117 288.526 107.968 291.57 107.07L309.75 101.55C328.961 95.8964 348.038 91.2009 367.875 88.3829C373.469 87.5881 379.181 86.6729 384.837 86.6845L385.067 86.643C409.831 87.4404 435.047 92.9067 458.72 100.115L473.042 105.114L470.284 99.9705L470.415 99.6359C471.11 97.5947 472.013 96.8569 471.725 94.5544C471.649 93.9506 471.835 93.9102 472.167 93.4242C475.48 98.4474 478.385 104.168 482.805 108.312C484.49 109.892 486.537 111.027 488.513 112.199L498.57 88.8737C499.875 85.9594 501.282 81.2869 503.527 79.1091L503.985 78.6991ZM282.383 109.52C279.467 109.884 278.181 111.027 275.625 112.067L250.312 122.792C246.797 124.439 243.322 126.657 239.743 128.062C238.956 128.372 239.21 128.136 238.727 128.635C238.4 128.972 238.097 129.263 237.736 129.562L237.188 129.492C236.689 129.946 236.85 129.893 236.347 130.094C235.705 130.351 235.135 130.544 234.522 130.884L233.958 131.208C233.289 131.545 232.793 131.65 232.273 132.225L232.014 132.562C229.791 133.179 228.71 134.363 226.815 135.372L215.625 141.789C213.528 142.979 211.101 144.433 209.25 145.961C208.26 146.778 208.185 147.352 206.812 147.8C203.529 148.874 200.258 151.733 197.294 153.578C193.654 149.738 188.823 146.529 184.311 143.814C182.851 142.937 181.783 142.296 180.034 142.584L179.816 143.25C180.432 145.269 182.395 146.597 183.938 147.934L191.853 154.949C198.329 160.589 204.894 165.929 212.082 170.64C212.629 170.999 214.254 172.349 214.803 172.434C214.952 172.456 219.55 168.9 220.082 168.523C233.161 159.271 248.142 152.508 262.828 146.227C286.974 135.9 312.736 126.275 338.703 121.887C344.789 120.858 350.914 120.511 357.055 120.002L384.937 117.855L384.837 86.6845C379.181 86.6729 373.469 87.5881 367.875 88.3829C348.038 91.2009 328.961 95.8964 309.75 101.55L291.57 107.07C288.526 107.968 285.549 109.117 282.383 109.52Z"/>
	<path fill="#CECBD7" transform="scale(0.666667 0.666667)" d="M241.815 160.331L255.763 153.118C254.754 154.226 253.741 155.475 252.603 156.446C250.402 158.322 246.382 159.96 243.689 161.068L241.815 160.331Z"/>
	<path fill="white" transform="scale(0.666667 0.666667)" d="M241.815 160.331L243.689 161.068C239.17 163.332 234.558 166.389 230.625 169.551C228.454 171.297 226.448 173.444 224.099 174.944C223.031 175.626 222.322 175.863 221.062 175.852L220.913 175.125C223.133 172.318 226.289 170.047 229.21 168.014C233.299 165.168 237.375 162.597 241.815 160.331Z"/>
	<path fill="#8890B3" transform="scale(0.666667 0.666667)" d="M144.402 170.008L144.71 147C144.747 145.221 144.661 144.739 145.97 143.474C149.151 147.095 152.639 151.153 157.523 152.384C159.667 152.925 162.032 152.896 164.23 153.185L163.888 153.42C160.741 155.608 159.513 157.226 158.991 161.062L158.855 162.871C158.806 163.613 158.599 164.216 158.356 164.914L157.099 165.121C153.094 167.74 148.656 169.8 144.273 171.706L144.402 170.008Z"/>
	<path fill="#C6C5D7" transform="scale(0.666667 0.666667)" d="M144.402 170.008C146.917 167.907 149.428 165.939 152.25 164.26C154.007 164.087 155.443 164.616 157.099 165.121C153.094 167.74 148.656 169.8 144.273 171.706L144.402 170.008Z"/>
	<path fill="#8890B3" transform="scale(0.666667 0.666667)" d="M503.745 96.138C513.392 103.735 525.22 108.151 536.062 113.752L576.764 135.388L590.974 142.139C586.21 144.169 582.028 146.412 577.748 149.33L570.497 154.496C555.341 143.573 539.212 134.341 522.649 125.752C513.739 121.132 504.859 116.518 495.369 113.177L503.745 96.138Z"/>
	<defs>
		<linearGradient id="gradient_13" gradientUnits="userSpaceOnUse" x1="253.82567" y1="81.48983" x2="324.83002" y2="166.45035">
			<stop offset="0" stop-color="white" stop-opacity="0.87450981"/>
			<stop offset="1" stop-color="white"/>
		</linearGradient>
	</defs>
	<path fill="url(#gradient_13)" transform="scale(0.666667 0.666667)" d="M282.383 109.52C285.549 109.117 288.526 107.968 291.57 107.07L309.75 101.55C328.961 95.8964 348.038 91.2009 367.875 88.3829C373.469 87.5881 379.181 86.6729 384.837 86.6845L384.937 117.855L357.055 120.002C350.914 120.511 344.789 120.858 338.703 121.887C312.736 126.275 286.974 135.9 262.828 146.227C248.142 152.508 233.161 159.271 220.082 168.523C219.55 168.9 214.952 172.456 214.803 172.434C214.254 172.349 212.629 170.999 212.082 170.64C204.894 165.929 198.329 160.589 191.853 154.949L183.938 147.934C182.395 146.597 180.432 145.269 179.816 143.25L180.034 142.584C181.783 142.296 182.851 142.937 184.311 143.814C188.823 146.529 193.654 149.738 197.294 153.578C200.258 151.733 203.529 148.874 206.812 147.8C208.185 147.352 208.26 146.778 209.25 145.961C211.101 144.433 213.528 142.979 215.625 141.789L226.815 135.372C228.71 134.363 229.791 133.179 232.014 132.562L232.273 132.225C232.793 131.65 233.289 131.545 233.958 131.208L234.522 130.884C235.135 130.544 235.705 130.351 236.347 130.094C236.85 129.893 236.689 129.946 237.188 129.492L237.736 129.562C238.097 129.263 238.4 128.972 238.727 128.635C239.21 128.136 238.956 128.372 239.743 128.062C243.322 126.657 246.797 124.439 250.312 122.792L275.625 112.067C278.181 111.027 279.467 109.884 282.383 109.52Z"/>
	<defs>
		<linearGradient id="gradient_14" gradientUnits="userSpaceOnUse" x1="392.74426" y1="232.76337" x2="375.94476" y2="125.9652">
			<stop offset="0" stop-color="#2B91FB"/>
			<stop offset="1" stop-color="#31B6FF"/>
		</linearGradient>
	</defs>
	<path fill="url(#gradient_14)" transform="scale(0.666667 0.666667)" d="M285.82 219.65L226.932 180.306C240.976 170.362 256.483 161.983 272.037 154.669C283.776 149.15 295.672 143.805 307.977 139.654C316.143 136.9 324.489 134.903 332.898 133.049C343.704 130.665 354.406 128.715 365.437 127.72C414.553 123.293 463.025 139.062 506.538 160.437L526.125 170.981C531.936 174.315 537.548 177.509 542.711 181.823C535.583 185.256 528.665 190.176 521.902 194.321L501.936 206.534C495.297 210.586 487.978 214.778 482.539 220.363C482.131 219.662 481.689 219.045 481.117 218.467C476.359 213.656 469.818 210.113 463.965 206.808C440.042 193.298 412.352 183.094 384.556 183.052C356.368 184.226 331.433 192.211 306.784 205.761C299.358 209.844 292.07 213.85 285.82 219.65Z"/>
	<path fill="white" transform="scale(0.666667 0.666667)" d="M187.288 163.592C195.348 170.466 201.192 179.416 208.369 187.165C222.199 202.099 237.369 215.526 252.896 228.66L263.362 236.921C264.572 237.79 266.065 239.052 267.48 239.511C271.848 232.504 279.857 226.141 286.439 221.194L285.82 219.65C292.07 213.85 299.358 209.844 306.784 205.761C331.433 192.211 356.368 184.226 384.556 183.052C412.352 183.094 440.042 193.298 463.965 206.808C469.818 210.113 476.359 213.656 481.117 218.467C481.689 219.045 482.131 219.662 482.539 220.363L483.061 221.862L503.583 238.439C495.032 245.753 485.251 251.814 475.981 258.182C468.561 263.28 461.017 269.108 453.083 273.337C449.542 275.969 445.577 278.142 441.939 280.675C436.582 284.406 431.263 289.018 425.533 292.054L393.576 312.599C390.392 314.481 385.679 317.954 381.997 318.304L382.031 340.004C382.057 342.704 381.71 345.734 382.171 348.373C382.667 351.215 382.38 354.437 382.401 357.33C382.409 358.341 382.262 359.777 382.508 360.726L382.873 365.13C377.564 361.144 371.747 357.682 366.19 354.045L343.238 338.538C314.446 318.744 285.352 299.631 261.781 273.462C255.825 266.85 250.494 259.523 245.201 252.375L229.849 231.375L217.735 212.759L198.378 182.363C194.583 176.468 189.941 170.631 186.989 164.261L187.288 163.592Z"/>
	<path fill="#3D4D76" transform="scale(0.666667 0.666667)" d="M380.947 259.326L383.339 259.484C381.37 272.49 381.95 286.015 381.935 299.133C381.928 304.644 381.413 310.623 381.998 316.084C382.048 316.553 381.991 316.924 381.911 317.385C377.807 315.647 373.698 312.575 369.878 310.224C360.657 304.548 351.196 299.134 342.592 292.539L342.1 281.628C342.023 280.529 341.308 276.437 341.878 275.75C352.238 263.262 365.594 260.691 380.947 259.326Z"/>
	<path fill="#152B79" transform="scale(0.666667 0.666667)" d="M382.899 214.847C404.596 215.383 424.465 226.066 442.952 236.475C449.503 240.163 455.979 244.169 462.964 246.998C468.699 240.119 473.511 232.537 479.352 225.694C480.366 224.506 481.666 222.511 483.061 221.862L503.583 238.439C495.032 245.753 485.251 251.814 475.981 258.182C468.561 263.28 461.017 269.108 453.083 273.337C453.058 271.214 454.57 268.141 455.232 266.086L459.933 251.188C458.533 249.38 455.266 247.696 453.29 246.469C447.593 242.934 441.584 239.937 435.636 236.853C428.534 233.172 421.434 229.489 414.041 226.415C408.609 224.157 403.045 222.126 397.312 220.792C392.901 219.765 388.367 220.061 383.895 219.465L383.486 219.407C378.969 219.604 374.795 220.686 370.419 221.754C348.717 227.052 329.121 238.39 310.123 249.772C312.54 257.556 314.999 265.353 315.577 273.536C309.354 270.414 303.48 266.176 297.791 262.191L267.48 239.511C271.848 232.504 279.857 226.141 286.439 221.194C294.172 227.627 300.22 236.232 306.557 243.992C331.577 232.604 354.453 216.052 382.899 214.847Z"/>
	<path fill="white" transform="scale(0.666667 0.666667)" d="M285.82 219.65C292.07 213.85 299.358 209.844 306.784 205.761C331.433 192.211 356.368 184.226 384.556 183.052L383.864 184.459L383.557 184.384C382.891 184.265 382.234 184.336 381.562 184.372L380.816 185.062C381.637 185.712 381.655 185.801 382.688 185.809L383.25 185.434L383.855 185.285C384.325 190.374 384.023 195.707 384.004 200.821C383.988 205.112 384.379 210.193 383.532 214.389L382.899 214.847C354.453 216.052 331.577 232.604 306.557 243.992C300.22 236.232 294.172 227.627 286.439 221.194L285.82 219.65Z"/>
	<path fill="#99E8FB" transform="scale(0.666667 0.666667)" d="M384.556 183.052C412.352 183.094 440.042 193.298 463.965 206.808C469.818 210.113 476.359 213.656 481.117 218.467C481.689 219.045 482.131 219.662 482.539 220.363L483.061 221.862C481.666 222.511 480.366 224.506 479.352 225.694C473.511 232.537 468.699 240.119 462.964 246.998C455.979 244.169 449.503 240.163 442.952 236.475C424.465 226.066 404.596 215.383 382.899 214.847L383.532 214.389C384.379 210.193 383.988 205.112 384.004 200.821C384.023 195.707 384.325 190.374 383.855 185.285L383.25 185.434L382.688 185.809C381.655 185.801 381.637 185.712 380.816 185.062L381.562 184.372C382.234 184.336 382.891 184.265 383.557 184.384L383.864 184.459L384.556 183.052Z"/>
	<path fill="#4CC9EF" transform="scale(0.666667 0.666667)" d="M383.486 219.407L383.895 219.465C388.367 220.061 392.901 219.765 397.312 220.792C403.045 222.126 408.609 224.157 414.041 226.415C421.434 229.489 428.534 233.172 435.636 236.853C441.584 239.937 447.593 242.934 453.29 246.469C455.266 247.696 458.533 249.38 459.933 251.188L455.232 266.086C454.57 268.141 453.058 271.214 453.083 273.337C449.542 275.969 445.577 278.142 441.939 280.675C436.582 284.406 431.263 289.018 425.533 292.054L393.576 312.599C390.392 314.481 385.679 317.954 381.997 318.304L381.911 317.385C381.991 316.924 382.048 316.553 381.998 316.084C381.413 310.623 381.928 304.644 381.935 299.133C381.95 286.015 381.37 272.49 383.339 259.484L380.947 259.326C381.847 259.287 382.657 259.339 383.438 258.826C384.092 254.178 383.74 249.108 383.734 244.403L383.486 219.407Z"/>
	<path fill="#152B79" transform="scale(0.666667 0.666667)" d="M383.339 259.484C398.021 259.628 414.551 265.486 424.872 276.206L425.762 277.19L425.533 292.054L393.576 312.599C390.392 314.481 385.679 317.954 381.997 318.304L381.911 317.385C381.991 316.924 382.048 316.553 381.998 316.084C381.413 310.623 381.928 304.644 381.935 299.133C381.95 286.015 381.37 272.49 383.339 259.484Z"/>
</svg>
